<svg xmlns="http://www.w3.org/2000/svg" width="1200" height="240"><defs><clipPath clipPathUnits="userSpaceOnUse" id="a"><path fill="none" d="M-332.644 1422.856h1200v240h-1200z"/></clipPath></defs><g transform="translate(332.644 -1422.856)" clip-path="url(#a)"><path d="M-252.646 1229.226l92.27 59.75v13.815l.447.258 104.83 67.887v31.652l.398.29 4.098 2.67.448.257h15.376l4.074 4.583v10.873l.447.273 8.099 5.259c-.732.656-1.143 1.447-1.143 2.316 0 2.22 2.805 4.037 6.235 4.037s6.185-1.816 6.185-4.037c0-2.22-2.755-4.004-6.185-4.004a9.123 9.123 0 00-2.93.482l-7.875-5.098v-10.615l-.174-.21-4.695-5.242-.398-.45h-15.898l-3.23-2.124v-31.683l-.447-.29-104.83-67.855v-13.799l-.397-.257-90.74-58.737h-3.975z" fill="#0073aa" fill-opacity=".882"/><path d="M-224.55 1229.226l83.664 54.152v21.294l.398.29 110.172 71.313v25.363l.447.258 11.55 7.543c-2.836.373-4.992 1.981-4.992 3.924 0 2.221 2.805 4.02 6.235 4.02s6.185-1.799 6.185-4.02c0-.861-.432-1.63-1.143-2.284a.88.88 0 00-.347-.434l-15.104-9.778v-25.347l-.398-.258-110.171-71.298v-21.358l-.447-.29-81.995-53.09h-4.05z" fill="#0073aa" fill-opacity=".882"/><path d="M-198.666 1229.226l78.05 50.533v25.605l.448.29 113.45 73.45v42.316l.397.29 8.993 5.822c-.28.46-.447.972-.447 1.495 0 2.221 2.78 4.005 6.21 4.005s6.185-1.784 6.185-4.005c0-2.22-2.756-4.052-6.185-4.052-1.568 0-2.983.387-4.074 1.013l-8.247-5.34v-42.315l-.398-.257-113.498-73.485v-25.571l-.398-.29-76.46-49.504h-4.024z" fill="#0073aa" fill-opacity=".882"/><path d="M-185.724 1229.226l73.848 47.815v26.119l.398.257L.704 1376.033v28.676l.398.258 7.651 4.986c-.106 0-.19-.015-.298-.015-3.43 0-6.21 1.783-6.21 4.004 0 2.221 2.78 4.021 6.21 4.021s6.185-1.8 6.185-4.02c0-1.315-.981-2.486-2.484-3.217.478-.368.446-.912-.074-1.255l-8.546-5.5v-28.709l-.447-.257-112.133-72.584v-26.12l-.422-.289-72.258-46.781h-3.974z" fill="#0073aa" fill-opacity=".882"/><path d="M-173.378 1229.226l68.602 44.374v30.413l.422.273L5.169 1375.18v28.162l.398.273 10.805 6.996v39.662l.696.257 9.961 3.715.323.129h19.624l.398-.258 9.116-5.918a9.068 9.068 0 002.112.257c3.43 0 6.21-1.816 6.21-4.037 0-2.22-2.78-4.02-6.21-4.02s-6.236 1.8-6.236 4.02c0 1.067.634 2.058 1.69 2.783l-8.298 5.34H28.146l-8.943-3.362v-39.34l-.447-.289L8 1402.586v-28.145l-.447-.29-109.5-70.909v-30.381l-.396-.258-66.998-43.376h-4.024z" fill="#23282d"/><path d="M-158.473 1229.226l64.884 41.992v33.373l.422.29 105.725 68.434v27.808l.397.258 18.283 11.853v27.406c-2.467.529-4.247 2.002-4.247 3.78 0 2.22 2.755 4.037 6.185 4.037 3.43 0 6.21-1.817 6.21-4.037 0-2.023-2.315-3.675-5.316-3.957v-27.984l-.398-.258-18.283-11.837v-27.84l-.447-.258-105.7-68.434v-33.373l-.397-.257-63.32-40.996h-4z" fill="#23282d"/><path d="M-144.264 1229.226l58.088 37.586v37.473l.398.258 104.11 67.372v27.84l.448.29 7.626 4.921.447.29h18.681v16.163l.397.29 7.428 4.825c-.61.624-.97 1.352-.97 2.139 0 2.22 2.806 4.02 6.236 4.02 3.43 0 6.21-1.8 6.21-4.02 0-2.22-2.78-4.037-6.21-4.037a8.82 8.82 0 00-3.23.595l-7.03-4.551v-17.258h-20.32l-6.88-4.439v-27.823l-.399-.258-104.134-67.427v-37.473l-.397-.258-56.464-36.54h-4.025z" fill="#0073aa" fill-opacity=".882"/><path d="M-119.572 1229.226l51.968 33.646v42.492l.397.29 100.706 65.2V1388l.398.258L49 1398.035v16.421h3.478c.517 1.886 3.05 3.33 6.111 3.33 3.43 0 6.21-1.8 6.21-4.021s-2.78-4.005-6.21-4.005c-2.808 0-5.136 1.208-5.912 2.863h-.844v-15.36l-.447-.29-15.054-9.73v-17.16l-.447-.29-100.658-65.17v-42.524l-.447-.257-50.318-32.59h-4z" fill="#0073aa" fill-opacity=".882"/><path d="M-105.19 1229.226l46.033 29.818v44.036l.447.258 101.375 65.651v15.761l.447.29 14.433 9.345v9.634l.422.29 11.75 7.607v25.845l.448.273 7.253 4.697c-.427.545-.696 1.146-.696 1.801 0 2.22 2.756 4.02 6.186 4.02s6.21-1.8 6.21-4.02c0-2.22-2.78-4.004-6.21-4.004-1.388 0-2.645.307-3.677.804l-6.683-4.343v-25.829l-.397-.258-11.775-7.623v-9.634l-.398-.29-14.482-9.376v-15.73l-.398-.289-101.4-65.667v-44.003l-.422-.258-44.466-28.805h-4z" fill="#23282d"/><path d="M-91.353 1229.226l42.37 27.406v47.991l.421.258 95.787 62.017v16.164l.447.257 14.21 9.2v9.585l.447.258 15.277 9.457c-.56.604-.87 1.318-.87 2.075 0 2.22 2.756 4.005 6.186 4.005s6.21-1.784 6.21-4.005-2.78-4.02-6.21-4.02c-1.228 0-2.367.23-3.329.626l-14.879-9.167v-9.554l-.422-.29-14.234-9.199v-16.148l-.398-.257-95.81-62.033v-47.976l-.398-.258-40.764-26.392h-4.024z" fill="#0073aa" fill-opacity=".882"/><path d="M-81.466 1229.226l38.603 24.993v50.147l.447.258 96.062 62.178v13.944l.398.258 14.557 9.425v12.481l.72.29 7.204 2.685.323.113h9.837l7.08 4.616v38.76l.397.258 6.41 4.165.446.258h93.179l.398-.258 8.446-5.484c.925.355 2 .579 3.155.579 3.43 0 6.21-1.784 6.21-4.005 0-2.22-2.78-4.02-6.21-4.02s-6.21 1.8-6.21 4.02c0 .81.384 1.542 1.018 2.172l-7.948 5.162h-90.87l-5.59-3.587v-38.792l-.446-.257-7.925-5.163-.398-.258H77.643l-6.21-2.316v-12.158l-.398-.257-14.557-9.441v-13.962l-.447-.258-96.036-62.177v-50.116l-.422-.257-37.039-23.997h-3.999z" fill="#0073aa" fill-opacity=".882"/><path d="M17.028 1229.226v30.09L1.08 1269.643l-.844.547v15.279c-1.782.714-2.957 1.994-2.957 3.441 0 1.448 1.175 2.704 2.957 3.41v10.326l.844.515 73.854 47.814v23.322l.844.546 34.181 22.13v22.099l.373.434 4.695 5.244v12.078l.795.547 10.184 6.562c-.031.163-.099.314-.099.482 0 2.221 2.805 4.037 6.235 4.037s6.21-1.816 6.21-4.037c0-2.22-2.78-4.02-6.21-4.02-1.04 0-1.99.207-2.857.498l-8.594-5.597v-11.548l-.398-.434-4.67-5.195v-22.677l-.82-.546-34.206-22.131v-23.304l-.834-.558-73.888-47.814v-8.492c2.246-.603 3.8-2.025 3.8-3.7 0-1.674-1.554-3.12-3.8-3.73v-13.446l15.998-10.342.795-.547v-31.621h-5.664z" fill="#0073aa" fill-opacity=".882"/><path d="M94.78 1229.226v90.709l.399.29 17.19 11.113v40.61l.173.193 4.869 5.452v39.131l.398.29 12.172 7.88c-2.371.576-4.074 2.053-4.074 3.78 0 2.22 2.805 4.02 6.235 4.02s6.21-1.8 6.21-4.02c0-1.83-1.888-3.369-4.471-3.86L120.243 1416v-38.922l-.224-.209-4.819-5.452v-40.851l-.447-.258-17.14-11.13v-89.952H94.78z" fill="#0073aa" fill-opacity=".882"/><path d="M105.586 1229.226v86.784l.398.258 15.85 10.26c.008.392.265 18.34.397 36.976.066 9.42.1 18.915.05 26.216-.025 3.65-.053 6.745-.125 9.006-.036 1.13-.1 2.05-.149 2.718-.05.67-.172 1.21-.124 1.094-.476 1.148.447 2.147 1.59 3.056 1.142.908 2.698 1.795 4.247 2.59a66.68 66.68 0 002.757 1.318c-2.36.567-4.048 2.02-4.048 3.747 0 2.221 2.78 4.021 6.21 4.021s6.235-1.8 6.235-4.02c0-1.411-1.124-2.63-2.832-3.346-.105-.192-.306-.356-.571-.466 0 0-3.095-1.191-6.012-2.686-1.458-.748-2.861-1.572-3.775-2.3-.915-.728-1.123-1.3-1.068-1.431.18-.437.172-.798.223-1.496.052-.698.113-1.61.149-2.75.072-2.28.1-5.4.124-9.055.05-7.312.016-16.81-.05-26.231-.132-18.845-.397-37.361-.397-37.361v-.37l-.447-.258-15.8-10.277v-85.997h-2.83z" fill="#0073aa" fill-opacity=".882"/><path d="M115.225 1229.226v84.019l.447.273 17.364 11.226v52.093l-3.9 2.525-.447.258v23.45l.447.273 12.545 8.106v27.373l.695.258 8.868 3.297c-.613.623-.968 1.36-.968 2.156 0 2.22 2.755 4.02 6.185 4.02 3.43 0 6.21-1.8 6.21-4.02 0-2.221-2.78-4.005-6.21-4.005-1.133 0-2.192.189-3.105.53l-8.843-3.296v-27.035l-.398-.274-12.595-8.154v-21.905l3.95-2.542.398-.257v-53.591l-.397-.29-17.389-11.242v-83.247h-2.857z" fill="#0073aa" fill-opacity=".882"/><path d="M123.174 1229.226v81.96l.422.257 15.824 10.261v60.988l-5.018 3.233-.397.257v15.665l.397.257 16.47 10.664a2.54 2.54 0 00-.074.595c0 2.221 2.756 4.02 6.185 4.02 3.43 0 6.21-1.799 6.21-4.02 0-2.22-2.78-4.005-6.21-4.005-2.02 0-3.763.644-4.893 1.609l-15.253-9.875v-14.153l5.018-3.217.398-.29v-62.5l-.398-.29-15.849-10.23v-81.187h-2.832z" fill="#0073aa" fill-opacity=".882"/><path d="M131.322 1229.226v77.151l.397.258 18.855 12.207v68.065l-7.974 2.975-.695.29v9.922l.398.258 7.551 4.905.422.258h12.967l5.217 3.377v11.902l-7.8 5.05c-1.107-.667-2.562-1.094-4.198-1.094-3.43 0-6.186 1.8-6.186 4.02 0 2.222 2.756 4.038 6.186 4.038s6.21-1.816 6.21-4.037c0-.483-.157-.954-.398-1.383l8.57-5.565.447-.29v-13.412l-.447-.258-6.012-3.892-.397-.29h-13.017l-6.682-4.326v-8.122l7.974-2.975.695-.29v-69.865l-.398-.29-18.854-12.191v-76.396h-2.832z" fill="#0073aa" fill-opacity=".882"/><path d="M149.381 1229.226v71.554l.447.258 17.662 11.468v89.116l.398.273 12.72 8.235c-2.495.52-4.299 2.022-4.299 3.812 0 2.22 2.756 4.02 6.185 4.02 3.43 0 6.26-1.8 6.26-4.02 0-1.84-1.957-3.368-4.57-3.844-.046-.194-.184-.374-.398-.514l-13.464-8.717v-89.134l-.398-.257-17.712-11.468v-70.782h-2.831z" fill="#0073aa" fill-opacity=".882"/><path d="M184.01 1229.226v49.28l-13.464 8.716-1.987 1.287 1.987 1.287 13.936 9.07v80.304l.422.418 5.888 6.627v34.176l-7.726 5.018a8.857 8.857 0 00-1.093-.08c-3.43 0-6.21 1.816-6.21 4.037s2.78 4.021 6.21 4.021 6.235-1.8 6.235-4.02c0-.615-.236-1.198-.62-1.722l8.023-5.178.844-.531v-36.718l-.398-.434-5.887-6.627v-80.818l-.795-.546-12.843-8.283 12.297-7.945.844-.547v-50.79h-5.663zm79.789 0v7.366h-19.426l-.844.547-27.896 18.06-.845.532v149.777l.845.547 9.638 6.24a2.87 2.87 0 00-.398 1.415c0 2.22 2.78 4.004 6.21 4.004s6.186-1.784 6.186-4.004c0-2.22-2.756-4.053-6.185-4.053-.559 0-1.076.086-1.59.177l-9.042-5.838v-146.77l26.208-16.967h22.804v-11.034H263.8z" fill="#0073aa" fill-opacity=".882"/><path d="M272.668 1229.226v84.951l-31.846 20.602-.67.402v85.9l-6.857 4.44a9.105 9.105 0 00-2.757-.419c-3.43 0-6.185 1.785-6.185 4.005 0 2.22 2.756 4.037 6.185 4.037 3.43 0 6.21-1.816 6.21-4.037 0-.57-.193-1.118-.522-1.608l7.552-4.922.621-.402v-85.852l31.896-20.602.621-.402v-86.093z" fill="#0073aa" fill-opacity=".882"/><path d="M280.443 1229.226v89.567l-33.561 21.695-.621.403v63.384l.322.321 6.111 6.852v16.663l.621.401 20.942 13.558c-1.096.724-1.764 1.719-1.764 2.815 0 2.22 2.756 4.004 6.185 4.004 3.43 0 6.21-1.784 6.21-4.005 0-2.22-2.78-4.02-6.21-4.02-.077 0-.147.03-.223.03l-21.512-13.943v-16.227l-.274-.306-6.16-6.916v-61.47l33.535-21.727.67-.403v-90.675h-4.272z" fill="#23282d"/><path d="M328.81 1229.226v24.14h-39.847v71.78l-32.468 21.052-.671.402v57.772l.62.401 7.9 5.131v13.494l1.043.402 8.148 3.04c-.68.643-1.043 1.426-1.043 2.267 0 2.221 2.755 4.037 6.185 4.037 3.43 0 6.21-1.816 6.21-4.037 0-2.22-2.78-4.004-6.21-4.004-.399 0-.765.034-1.143.08l-8.942-3.362v-13.044l-.621-.401-7.9-5.18v-55.486l32.517-21.005.62-.402v-70.187h39.845v-1.383l.04-25.476h-4.254z" fill="#0073aa" fill-opacity=".882"/><path d="M336.262 1229.226v29.834h-39.076v72.744l-33.039 21.39-.62.403v47.782l.62.402 12.645 8.203c-2.226.616-3.776 2.065-3.776 3.73 0 2.222 2.781 4.005 6.21 4.005 3.43 0 6.186-1.783 6.186-4.004 0-.824-.414-1.594-1.068-2.236-.022-.345-.244-.672-.621-.916l-15.924-10.294v-45.563l32.99-21.359.646-.402v-71.135h39.075v-32.584z" fill="#0073aa" fill-opacity=".882"/><path d="M352.458 1229.226v39.468h-32.469v75.689l-29.785 19.332-.621.402v58.06l.62.402 8.372 5.42c-.37.513-.596 1.087-.596 1.69 0 2.22 2.83 4.037 6.26 4.037 3.43 0 6.186-1.817 6.186-4.037 0-2.221-2.756-4.021-6.185-4.021-.95 0-1.85.157-2.658.402l-7.75-5.018v-55.825l29.808-19.283.596-.402v-74.095h32.467v-42.219h-4.248z" fill="#0073aa" fill-opacity=".882"/><path d="M370.095 1229.226v51.289h-29.807v70.894l-25.412 16.453-.62.402v36.557l-8.521 5.5a9.323 9.323 0 00-.969-.05c-3.43 0-6.235 1.785-6.235 4.005 0 2.22 2.805 4.021 6.235 4.021s6.21-1.8 6.21-4.02c0-.965-.544-1.818-1.416-2.51l8.322-5.403.62-.386v-36.558l25.414-16.485.621-.402v-69.268h29.809v-54.04H370.1z" fill="#0073aa" fill-opacity=".882"/><path d="M389.347 1229.226v54.49l-15.998 10.39h-11.725v61.887l-16.644 10.792-.62.402v30.22l-14.93 9.65-.621.403v2.862c-3.044.257-5.39 1.915-5.39 3.957 0 2.22 2.755 4.02 6.185 4.02 3.43 0 6.21-1.8 6.21-4.02 0-1.388-1.109-2.593-2.757-3.313v-2.348l14.93-9.666.62-.434v-30.22l16.644-10.744.621-.402v-60.295h9.216l.62-.402 17.266-11.178.62-.403v-55.648h-4.247z" fill="#0073aa" fill-opacity=".882"/><path d="M426.907 1229.226v81.075h-57.36v48.217l-15.451 10.004-.621.402v30.429l-11.874 7.705-.62.402v11.82l-33.844 21.95a8.908 8.908 0 00-2.882-.482c-3.43 0-6.26 1.784-6.26 4.004 0 2.221 2.83 4.02 6.26 4.02 3.43 0 6.185-1.799 6.185-4.02 0-.533-.157-1.047-.447-1.512l34.654-22.42.596-.402v-11.804l11.874-7.72.62-.403v-30.412l15.452-10.004.62-.402v-46.624h57.359v-83.826h-4.248z" fill="#23282d"/><path d="M447.177 1229.226v89.326l-14.954 9.698h-52.165v32.247l-16.495 10.647-.596.402v32.456l.596.386 9.142 5.918c-.588.611-.944 1.32-.944 2.091 0 2.221 2.83 4.005 6.26 4.005 3.43 0 6.186-1.784 6.186-4.005 0-2.22-2.756-4.02-6.186-4.02-.683 0-1.344.109-1.962.24l-8.843-5.74v-30.189l16.47-10.663.62-.402V1331h49.634l.621-.402 16.246-10.486.621-.402v-90.484zm53.508 0v137.673l-52.713 34.112h-7.402l-.596.402-11.65 7.543c-3.389.03-6.161 1.803-6.161 4.005 0 2.22 2.805 4.02 6.235 4.02s6.21-1.8 6.21-4.02c0-1.154-.763-2.18-1.962-2.911l9.713-6.29h7.378l.62-.401 53.955-34.916.621-.402v-138.818h-4.247z" fill="#0073aa" fill-opacity=".882"/><path d="M509.404 1229.226v140.85l-74.796 48.426h-15.103l-6.608-7.398-.621-.691h-4.025c-1.136-.883-2.826-1.464-4.745-1.464-3.43 0-6.185 1.784-6.185 4.004 0 2.221 2.756 4.021 6.185 4.021 3.322 0 5.994-1.688 6.16-3.812h.175l6.558 7.398.62.692h19.353l.62-.402 76.04-49.23.621-.402v-141.995h-4.247z" fill="#0073aa" fill-opacity=".882"/><path d="M518.521 1229.226v41.945h30.953l8.148 3.008v74.739l-114.418 74.08h-56.217l-.595.401-27.922 18.061c-1.099-.642-2.498-1.061-4.1-1.061-3.43 0-6.21 1.8-6.21 4.02 0 2.221 2.78 4.038 6.21 4.038 3.431 0 6.186-1.817 6.186-4.038 0-.128-.032-.244-.05-.37l28.27-18.286h56.19l.622-.402 115.66-74.9.62-.401v-77.457l-1.067-.402-9.638-3.587-.497-.209H522.77v-39.179h-4.247z" fill="#0073aa" fill-opacity=".882"/><path d="M617.438 1229.226v90.935L449.44 1428.964h-32.642l-.67.402-9.29 6.03h-15.551l-.62.387-7.776 5.05c-1.023-.483-2.26-.773-3.627-.773-3.43 0-6.21 1.8-6.21 4.021s2.78 4.037 6.21 4.037 6.186-1.816 6.186-4.037a2.76 2.76 0 00-.174-.9c.017-.01.032-.011.05-.015l7.75-5.018H408.6l.62-.402 9.316-6.032h32.666l.62-.402 169.242-109.606.621-.403v-92.076h-4.248z" fill="#0073aa" fill-opacity=".882"/><path d="M629.238 1229.226v124.017l-36.69 23.74h-46.18l-.447.289-88.434 57.256h-35.994l-.398.258-11.899 7.72c-.982-1.377-3.138-2.332-5.639-2.332-3.43 0-6.185 1.8-6.185 4.02 0 2.222 2.756 4.005 6.185 4.005 3.108 0 5.657-1.48 6.11-3.41l13.017-8.427h35.97l.448-.257 88.434-57.29h46.129l.448-.257 37.56-24.301.397-.258v-124.773h-2.832z" fill="#0073aa" fill-opacity=".882"/><path d="M639.994 1229.226v128.52l-143.88 93.122H393.77l-.448.258-9.39 6.112c-1.136-.856-2.786-1.4-4.669-1.4-3.43 0-6.21 1.785-6.21 4.005 0 2.22 2.78 4.02 6.21 4.02s6.185-1.8 6.185-4.02c0-.309-.073-.596-.174-.885l9.614-6.256h102.419l.398-.29 144.724-93.652.397-.29v-129.24h-2.832z" fill="#23282d"/><path d="M649.558 1229.226v129.901l-154.174 99.858h-60.19c-.612-1.8-3.043-3.152-6.01-3.152-3.43 0-6.261 1.784-6.261 4.004 0 2.22 2.83 4.021 6.26 4.021 2.905 0 5.286-1.297 5.962-3.04h61.383l.398-.257 155.131-100.44.398-.257V1229.22h-2.832z" fill="#0073aa" fill-opacity=".882"/><path d="M659.867 1229.226v132.964L496.61 1467.904h-79.664l-8.52-5.5c.812-.679 1.341-1.517 1.341-2.444 0-2.221-2.78-4.005-6.21-4.005s-6.185 1.784-6.185 4.005c0 2.22 2.755 4.02 6.185 4.02.966 0 1.893-.148 2.707-.402l9.067 5.903.398.257h82.075l.398-.257 164.05-106.247.448-.257v-133.749h-2.832zm57.002 51.652v151.89l-45.135 29.208-.398.273v9.392c-3.534.275-6.284 2.22-6.284 4.584 0 2.553 3.184 4.648 7.13 4.648 3.944 0 7.178-2.095 7.178-4.648 0-2.107-2.208-3.851-5.192-4.407v-8.83l45.085-29.19.448-.258v-152.658h-2.832z" fill="#0073aa" fill-opacity=".882"/><path d="M722.532 1280.878v154.606l-37.41 24.236-.448.274v1.962a12.12 12.12 0 00-.744-.031c-.247 0-.53-.015-.77 0-3.601.237-6.41 2.222-6.41 4.616 0 2.553 3.236 4.616 7.18 4.616 3.953 0 7.13-2.062 7.13-4.616 0-1.704-1.437-3.189-3.553-3.989v-1.769l37.41-24.27.448-.257v-155.373h-2.832z" fill="#0073aa" fill-opacity=".882"/><path d="M728.916 1280.878v157.127l-33.038 21.359-.398.257v12.079a10.652 10.652 0 00-1.342-.097c-3.943 0-7.13 2.062-7.13 4.616s3.186 4.648 7.13 4.648c3.945 0 7.13-2.095 7.13-4.648 0-1.545-1.161-2.91-2.956-3.748v-12.094l33.038-21.36.398-.289v-157.857h-2.832z" fill="#0073aa" fill-opacity=".882"/><path d="M734.755 1280.878v159.726l-26.256 17-.398.289v4.118c-3.278.421-5.763 2.29-5.763 4.535 0 2.554 3.226 4.616 7.179 4.616 3.943 0 7.13-2.062 7.13-4.616 0-2.235-2.464-4.106-5.714-4.535v-3.41l26.258-16.968.397-.29v-160.455h-2.832z" fill="#0073aa" fill-opacity=".882"/><path d="M741.163 1280.878v168.926l-20.147 13.074-.422.258v8.508a10.65 10.65 0 00-.845-.03c-3.944 0-7.179 2.061-7.179 4.615 0 2.554 3.235 4.648 7.18 4.648 3.944 0 7.129-2.095 7.129-4.648 0-1.68-1.385-3.15-3.453-3.956v-8.364l20.147-13.043.447-.29v-169.693h-2.857z" fill="#0073aa" fill-opacity=".882"/><path d="M852.535 1229.226v128.73l.398.274 21.835 14.104v210.05l.447.258 10.856 7.029v16.71l-33.088 21.39h-50.578l-.398.258-40.69 26.344H591.33l-20.644-13.349-.447-.29h-11.55l-2.708-1.753-.398-.257h-5.217c-.325-2.284-3.204-4.069-6.707-4.069-3.72 0-6.732 2.017-6.732 4.504 0 2.487 3.011 4.503 6.732 4.503 2.984 0 5.5-1.308 6.384-3.104h4.397l2.683 1.753.397.258h11.526l20.668 13.364.398.273h172.396l.398-.273 40.714-26.328h50.55l.448-.257 33.882-21.953.398-.274v-18.189l-.398-.273-10.905-7.045v-210.018l-.397-.258-21.836-14.169v-127.942h-2.832z" fill="#0073aa" fill-opacity=".882"/><path d="M859.043 1229.226v127.025l.398.29 20.469 13.22v210.47l.398.257 11.948 7.784v19.283l-37.142 24.086H804.86l-.448.258-39.448 25.588H542.608l-6.062-3.94-.397-.258H374.036l-.398.258-25.785 16.695-.447.257v9.715c-3.02.45-5.267 2.27-5.267 4.423 0 2.487 3.011 4.503 6.732 4.503 3.72 0 6.732-2.016 6.732-4.503 0-2.177-2.297-4.03-5.366-4.455v-8.91l24.94-16.148h159.804l6.036 3.94.448.258h224.593l.447-.258 39.497-25.572h50.302l.399-.29 38.082-24.639.398-.257v-20.846l-.398-.274-11.948-7.72v-210.469l-.447-.29-20.42-13.188v-126.318h-2.831z" fill="#0073aa" fill-opacity=".882"/><path d="M864.93 1229.226v125.691l.448.257 20.072 12.979v210.675l.397.29 11.278 7.301v22.886l-40.64 26.344h-50.65l-.399.29-49.284 31.877-.398.29v17.208l-4 2.574h-14.308l-3.18-2.38v-16.566l-.496-.257-4.82-2.75-.397-.241H523.565l-.448.257-30.23 19.59h-14.21l-19.674-12.723c1.468-.825 2.385-2.058 2.385-3.441 0-2.487-3.011-4.504-6.732-4.504s-6.732 2.017-6.732 4.504c0 2.487 3.012 4.487 6.732 4.487.6 0 1.186-.062 1.74-.161l20.667 13.381.398.29h16.619l.447-.29 30.18-19.54h202.784l3.949 2.251v16.404l.348.258 4 2.959.421.306h16.743l.398-.258 4.794-3.12.447-.258v-17.225l48.44-31.378h50.603l.447-.258 41.51-26.859.398-.29v-24.429l-.398-.257-11.303-7.286v-210.72l-.447-.257-20.048-12.978V1229.23h-2.857z" fill="#23282d"/><path d="M871.539 1229.226v123.358l.398.258 20.244 13.107v210.212l.448.29 11.451 7.43v26.264l-45.433 29.415h-48.565l-.447.258-45.883 29.722-.447.257v17.256l-7.08 4.569h-22.231l-3.453-2.204v-17.322l-.398-.257-3.577-2.316-.447-.29H528.758l-.448.29-31.846 20.601h-37.907l-32.99-21.358-.447-.29h-15.5c-.787-1.901-3.363-3.297-6.458-3.297-3.72 0-6.732 2.016-6.732 4.503s3.011 4.504 6.732 4.504c3.4 0 6.2-1.688 6.657-3.877h14.11l33.038 21.391.448.258h40.215l.398-.258 31.87-20.634h195.027l2.782 1.802v17.29l.398.289 4.248 2.75.447.258h24.617l.448-.258 7.874-5.13.398-.258v-17.241l45.087-29.175h48.615l.447-.29 46.205-29.898.422-.29v-27.807l-.422-.258-11.477-7.463v-210.172l-.398-.258-20.246-13.139v-122.586h-2.832z" fill="#23282d"/><path d="M4.307 1238.458c-3.43 0-6.21 1.784-6.21 4.005v.112l-13.737 8.894-.82.547v51.659l.82.547 79.865 51.692v22.226l.82.53 34.108 22.083v22.5l.795.53 3.403 2.204c-1.31.744-2.161 1.827-2.161 3.04 0 2.22 2.78 4.004 6.21 4.004s6.185-1.784 6.185-4.004c0-1.426-1.157-2.69-2.882-3.41a2.298 2.298 0 00-.447-.354l-5.44-3.522v-22.5l-.844-.546-34.082-22.082v-22.21l-.845-.547-79.84-51.692v-48.636l11.825-7.656a8.608 8.608 0 003.279.628c3.43 0 6.185-1.817 6.185-4.037 0-2.221-2.756-4.005-6.185-4.005zm679.314 23.482c-7 0-12.668 3.653-12.668 8.186 0 4.533 5.667 8.235 12.668 8.235 1.039 0 2.04-.104 3.006-.258l21.165 13.704v48.972l-201.114 130.224h-134.49l-13.414-8.701c.835-.684 1.366-1.519 1.366-2.461 0-2.22-2.78-4.005-6.21-4.005s-6.185 1.784-6.185 4.005c0 2.013 2.287 3.663 5.266 3.956l15.973 10.358.844.515h139.134l.845-.515L712.629 1342.8l.845-.515v-51.997l-.845-.546-20.693-13.429c2.659-1.51 4.347-3.725 4.347-6.192 0-4.533-5.668-8.186-12.669-8.186zm-996.187 7.961c-3.43 0-6.26 1.816-6.26 4.037s2.83 4.021 6.26 4.021c.974 0 1.888-.176 2.708-.434l8.496 5.516v6.386l.62.402 14.608 9.44.62.387h13.564l.596-.386 16.097-10.39h26.282l149.145 96.563v36.01l.621.402 7.452 4.825c-.715.67-1.172 1.48-1.172 2.355 0 2.22 2.805 4.004 6.235 4.004s6.21-1.784 6.21-4.004c0-2.22-2.78-4.053-6.21-4.053-.51 0-.99.067-1.465.144l-7.378-4.808v-36.01l-.62-.403-150.389-97.368-.621-.402h-29.859l-.621.402-16.072 10.374h-10.011l-13.365-8.62v-6.402l-.621-.402-9.167-5.935c.33-.49.522-1.039.522-1.608 0-2.22-2.756-4.037-6.185-4.037z" fill="#0073aa" fill-opacity=".882"/><path d="M-264.696 1277.509l-.621.386-11.775 7.655a9.34 9.34 0 00-2.26-.273c-3.43 0-6.21 1.784-6.21 4.005 0 2.22 2.78 4.053 6.21 4.053s6.185-1.833 6.185-4.053c0-.697-.267-1.345-.746-1.914l10.98-7.11h34.354l160.225 103.722v30.477l.621.402 20.42 13.22c-.116.31-.224.62-.224.95 0 2.22 2.756 4.004 6.185 4.004 3.43 0 6.21-1.784 6.21-4.004 0-2.22-2.78-4.053-6.21-4.053a8.36 8.36 0 00-3.577.788l-19.177-12.45v-30.444l-.621-.434-161.442-104.541-.67-.386H-264.7z" fill="#0073aa" fill-opacity=".882"/><path d="M-235.084 1297.916c-3.43 0-6.186 1.784-6.186 4.004 0 2.221 2.756 4.021 6.186 4.021 1.476 0 2.811-.36 3.874-.917l103.117 66.746v34.145l.67.401 7.404 4.81c-.668.64-1.068 1.402-1.068 2.235 0 2.22 2.78 4.02 6.21 4.02s6.185-1.8 6.185-4.02c0-2.221-2.756-4.005-6.185-4.005-.559 0-1.1.088-1.615.177l-7.353-4.76v-34.131l-.62-.401-104.509-67.662c.056-.217.1-.432.1-.66 0-2.22-2.78-4.004-6.21-4.004zm-476.959 25.797l-.621.402-16.098 10.422v3.892l18.482-11.965h169.64l4.62 2.991v132.025l.62.401 7.254 4.696.621.402h241.377l.62-.402 6.51-4.214h133.991c.921 1.475 3.205 2.526 5.813 2.526 3.43 0 6.185-1.8 6.185-4.021s-2.755-4.005-6.185-4.005c-2.746 0-5.067 1.15-5.887 2.75h-135.684l-.62.402-6.509 4.214h-237.858l-6.011-3.908V1328.33l-.621-.434-5.838-3.78-.62-.402h-173.192z" fill="#0073aa" fill-opacity=".882"/><path d="M-698.008 1328.875v49.633l-19.401 12.562-.621.386v18.864c-2.598.481-4.521 2.04-4.521 3.876 0 2.221 2.78 4.021 6.21 4.021s6.185-1.8 6.185-4.02c0-1.63-1.475-3.036-3.627-3.668v-17.917l19.402-12.562.62-.434v-47.992h142.489l6.706 4.327v131.394l.622.402 9.19 5.999.621.402h255.128l.621-.402 5.59-3.619h147.731l.596-.402 7.676-4.937c.6.124 1.247.208 1.913.208 3.43 0 6.185-1.8 6.185-4.02 0-2.221-2.756-4.037-6.185-4.037-3.43 0-6.21 1.816-6.21 4.037 0 .773.334 1.493.92 2.106l-6.633 4.294h-147.781l-.621.403-5.565 3.602h-251.57l-7.974-5.146v-131.432l-.62-.402-7.925-5.13-.621-.403h-148.524z" fill="#23282d"/><path d="M-335.25 1333.748c-3.43 0-6.184 1.8-6.184 4.021s2.756 4.005 6.185 4.005c1.839 0 3.486-.53 4.62-1.351h73.355l127.286 82.41 1.242.805h19.748l29.09 18.832 1.243.804h21.114c1.118 1.05 2.972 1.738 5.093 1.738 3.43 0 6.235-1.784 6.235-4.005 0-2.22-2.805-4.02-6.235-4.02-1.366 0-2.604.289-3.626.772h-19.053l-29.09-18.833-1.242-.804h-19.749l-127.31-82.395-1.242-.804h-77.082c-1.121-.725-2.682-1.174-4.396-1.174z" fill="#0073aa" fill-opacity=".882"/><path d="M-284.198 1435.832l-.422.257-15.128 9.811h-76.71a2.86 2.86 0 00.398-1.415c0-2.221-2.755-4.005-6.185-4.005-3.43 0-6.26 1.785-6.26 4.005 0 2.22 2.83 4.02 6.26 4.02 1.366 0 2.604-.289 3.627-.772h80.062l.398-.257 15.104-9.81h152.822l9.514 6.16c-.24.428-.398.9-.398 1.382 0 2.221 2.78 4.021 6.21 4.021s6.186-1.8 6.186-4.02c0-2.221-2.756-4.021-6.185-4.021-1.626 0-3.119.4-4.223 1.061l-9.514-6.16-.447-.257h-155.107z" fill="#23282d"/><path d="M106.801 1440.383c-3.43 0-6.185 1.8-6.185 4.021s2.756 4.037 6.185 4.037c3.43 0 6.21-1.816 6.21-4.037 0-2.22-2.78-4.02-6.21-4.02zm75.243 0c-3.43 0-6.21 1.8-6.21 4.021s2.78 4.037 6.21 4.037 6.235-1.816 6.235-4.037c0-2.22-2.806-4.02-6.235-4.02z" fill="#0073aa" fill-opacity=".882"/><path d="M-139.22 1441.075c-3.032 0-5.56 1.407-6.112 3.265h-135.683l-.447.29-10.632 6.883h-101.898c.307-.476.496-.998.496-1.544 0-2.22-2.805-4.02-6.235-4.02s-6.21 1.8-6.21 4.02c0 2.22 2.78 4.037 6.21 4.037 1.251 0 2.423-.243 3.403-.66h105.402l.422-.257 10.682-6.9h134.615c.746 1.686 3.144 2.911 5.987 2.911 3.43 0 6.185-1.784 6.185-4.005 0-2.22-2.756-4.02-6.185-4.02z" fill="#23282d"/><path d="M-515.613 1451.413c-3.43 0-6.185 1.816-6.185 4.037 0 2.22 2.755 4.02 6.185 4.02 3.109 0 5.7-1.48 6.16-3.409h79.541l6.732 4.359.448.257h132.701l.447-.257 9.34-6.08h200.597l8.645 5.581c-.135.332-.223.67-.223 1.03 0 2.22 2.78 4.02 6.21 4.02s6.186-1.8 6.186-4.02c0-2.222-2.756-4.038-6.186-4.038-1.828 0-3.437.531-4.57 1.351l-8.496-5.5-.398-.257h-202.853l-.447.257-9.39 6.064h-130.466l-6.682-4.342-.447-.274h-80.907c-.813-1.622-3.172-2.798-5.937-2.798h-.009z" fill="#23282d"/><path d="M231.706 1455.814c-3.43 0-6.185 1.784-6.185 4.004 0 2.22 2.756 4.02 6.185 4.02 3.43 0 6.21-1.8 6.21-4.02 0-2.22-2.78-4.004-6.21-4.004zm25.411 0c-3.43 0-6.235 1.784-6.235 4.004 0 2.22 2.805 4.02 6.235 4.02s6.21-1.8 6.21-4.02c0-2.22-2.78-4.004-6.21-4.004zm24.319.113c-3.43 0-6.185 1.784-6.185 4.004 0 2.22 2.755 4.021 6.185 4.021 3.43 0 6.21-1.8 6.21-4.02 0-2.222-2.78-4.005-6.21-4.005zm-370.828.916c-3.43 0-6.185 1.785-6.185 4.005 0 .81.382 1.556 1.019 2.187l-16.47 10.664h-115.537l-.447.29-30.505 19.75h-351.358v46.818h-119.883v1.833h122.716v-46.818h349.659l.398-.258 30.603-19.782h115.487l.447-.258 16.917-10.985c.93.358 1.97.58 3.13.58 3.43 0 6.26-1.8 6.26-4.022 0-2.22-2.83-4.004-6.26-4.004z" fill="#0073aa" fill-opacity=".882"/><path d="M-92.005 1470.836l-.447.258-13.489 8.765h-121.522l-.398.257-30.853 19.991H-595.85l-.398.29-2.956 1.881-.398.258v40.256l-3.379 2.188h-125.77v1.833h126.962l.448-.258 4.173-2.702.398-.289v-40.257l2.11-1.367h337.1l.398-.257 30.853-19.99h121.522l.447-.29 13.539-8.734h6.483v15.247l-3.105 2.01a9.166 9.166 0 00-2.98-.482c-3.43 0-6.186 1.784-6.186 4.005 0 2.22 2.756 4.02 6.186 4.02s6.26-1.8 6.26-4.02c0-.869-.445-1.659-1.169-2.316l3.428-2.22.398-.257v-17.821h-10.508z" fill="#0073aa" fill-opacity=".882"/><path d="M6.823 1472.573c-3.43 0-6.236 1.833-6.236 4.053 0 2.22 2.806 4.004 6.236 4.004 3.43 0 6.21-1.784 6.21-4.004 0-2.22-2.78-4.053-6.21-4.053zm25.361 0c-3.43 0-6.185 1.833-6.185 4.053 0 2.22 2.756 4.004 6.185 4.004 3.43 0 6.21-1.784 6.21-4.004 0-2.22-2.78-4.053-6.21-4.053zm49.881 0c-3.43 0-6.21 1.833-6.21 4.053 0 2.22 2.78 4.004 6.21 4.004s6.185-1.784 6.185-4.004c0-2.22-2.755-4.053-6.185-4.053zm-25.513.112c-3.43 0-6.235 1.8-6.235 4.02 0 2.222 2.805 4.038 6.235 4.038s6.185-1.816 6.185-4.037c.001-2.22-2.755-4.02-6.185-4.02z" fill="#23282d"/><path d="M-39.907 1473.007c-3.43 0-6.185 1.816-6.185 4.037 0 2.22 2.756 4.02 6.185 4.02 3.43 0 6.26-1.8 6.26-4.02 0-2.221-2.83-4.037-6.26-4.037z" fill="#0073aa" fill-opacity=".882"/><path d="M-541.736 1476.642l-.621.498-14.432 11.114h-60.364l-.621.402-68.735 44.502h-42.255v2.75h44.042l.621-.402 68.71-44.487h60.589l.67-.498 14.334-11.114h270.629l6.16 3.957v.193c-2.808.385-4.918 2.023-4.918 3.956 0 2.221 2.756 4.021 6.185 4.021 3.43 0 6.21-1.8 6.21-4.02 0-1.53-1.288-2.875-3.23-3.555v-1.754l-.67-.401-7.353-4.76-.62-.403h-274.323z" fill="#23282d"/><path d="M-227.143 1484.571l-.398.257-31.474 20.345h-325.911l-.398.258-7.452 4.825-.398.257v61.245h-5.216v-19.396h-12.72v28.081h-5.837v-28.756h-11.874v28.097h-6.011v-27.422h-11.699v27.534h-5.142v-27.212h-11.874v28.097h-65.233v1.834h68.091v-28.097h6.185v27.212h10.806v-27.52h6.011v27.405h11.7v-28.096h6.21v28.755h11.501v-28.065h7.056v19.381h10.88v-62.339l6.608-4.246h325.91l.448-.257 31.399-20.345h74.348l7.204 4.664c-.85.688-1.367 1.543-1.367 2.493 0 2.221 2.78 4.02 6.21 4.02s6.186-1.799 6.186-4.02c0-2.22-2.756-4.004-6.186-4.004a9.35 9.35 0 00-2.632.37l-7.875-5.098-.397-.258h-76.66z" fill="#0073aa" fill-opacity=".882"/><path d="M-114.026 1489.547c-3.43 0-6.185 1.784-6.185 4.005 0 .327.059.644.174.949l-7.974 5.162h-36.268l-.621.402-7.478 4.842h-64.388l-.62.402-17.364 11.242h-108.855l-.62.402-5.217 3.377-.67.402v17.258l-2.857 1.866h-106.768c-4.456 0-7.377 1.984-7.725 3.989-.174 1.002.205 2.03 1.117 2.863.914.832 2.492 1.431 4.298 1.431h107.215c.853 0 1.001.112 1.192.29.19.177.317.57.249 1.029-.07.459-.357.95-.696 1.238-.339.288-.556.338-.745.338H-481.7l-.621.402-2.832 1.833-.62.402v7.463l-2.088 1.318h-51.171l-.67.403-4.745 3.087-.621.402v19.782h-27.325l-.572.386-18.283 11.08H-722.98l-.62.403-5.118 3.313v3.908l7.503-4.857h131.658l.62-.386 18.284-11.081h29.833V1567.5l3.504-2.3h51.248l.62-.402 3.305-2.155.62-.402v-7.414l1.59-1.03h105.105c1.767 0 3.193-.677 4.098-1.447.905-.77 1.422-1.685 1.565-2.638.143-.952-.071-1.981-1.019-2.862-.947-.882-2.691-1.464-4.645-1.464h-107.215c-.491 0-.623-.088-.845-.29a1.038 1.038 0 01-.298-.933c.13-.754.664-1.56 3.453-1.56h108.48l.62-.402 4.174-2.686.621-.402v-17.241l4.025-2.573h108.828l.621-.402 17.364-11.242h64.337l.67-.402 7.478-4.841h36.27l.62-.403 8.024-5.195c1.016.47 2.235.756 3.578.756 3.43 0 6.21-1.8 6.21-4.02 0-2.221-2.78-4.005-6.21-4.005zm49.706 0c-3.43 0-6.21 1.784-6.21 4.005 0 .159.071.312.1.466l-8.919 5.758h-20.047l-.62.402-4.522 2.927-.62.402v24.623l-6.037 3.908h-10.085l-5.838-3.763-.62-.434h-63.199l-.62.434-20.072 12.995H-282.3l-.621.402-56.19 36.349H-453.48l-.62.402-17.24 11.178-.621.402v6.529l-8.893 5.743-.621.402v39.822c0 1.098-.491 1.697-1.02 2.042-.526.347-1.164.475-1.911.45-1.496-.048-3.18-.703-3.18-2.492v-7.48c0-2.582-2.857-4.402-5.888-4.358-3.03.046-5.837 1.855-5.837 4.359v7.913c0 1.24-.471 2-1.019 2.428-.547.429-1.158.557-1.738.547-1.162-.019-2.832-.671-2.832-3.088v-6.707c0-1.082-.48-2.126-1.69-2.733-1.21-.608-2.458-.563-3.452-.563h-198.654c-1.861 0-3.116.863-3.8 1.689a4.83 4.83 0 00-1.118 2.718c-.078.956.125 1.917.82 2.815.696.897 2.235 1.737 4.1 1.737h30.826c.434 0 .29 0 .398.128.108.132.237.506.1.933-.277.855-1.154 1.609-2.758 1.609h-29.586c-1.851 0-3.44.741-4.248 1.608a3.85 3.85 0 00-1.068 2.815c.026.962.415 1.939 1.217 2.782s2.27 1.576 4.099 1.576h31.673c.098.195.167.75-.05 1.32-.216.568-.672 1.153-1.142 1.511-.47.359-.806.467-1.117.467h-29.66c-6.825 0-6.932 7.945 0 7.945h31.97c.556 0 .546.065.696.225.15.158.316.505.2.917-.234.824-1.072 1.625-3.205 1.625h-30.008c-2.027 0-3.821.644-4.87 1.527-1.047.883-1.483 1.941-1.44 2.975.043 1.035.578 2.074 1.615 2.927 1.037.854 2.74 1.496 4.695 1.496h14.035v53.782l-32.397 20.972v3.892l36.02-23.32.62-.402v-54.78c0-.483-.034-.86-.173-1.27a2.178 2.178 0 00-1.193-1.287c-.72-.33-1.446-.36-1.912-.37-.468-.012-.839.03-1.242.03h-13.762c-.682 0-1.03-.168-1.391-.466a1.822 1.822 0 01-.646-1.287c-.021-.5.203-.97.521-1.238.319-.268.65-.418 1.516-.418h30.008c4.082 0 6.803-1.932 7.353-3.876.274-.973.142-2.015-.696-2.896-.838-.88-2.52-1.527-4.347-1.527h-31.971c-1.576 0-1.003-2.43 0-2.43h29.66c1.843 0 3.334-.658 4.347-1.43 1.013-.773 1.68-1.699 2.037-2.638.358-.94.474-1.91 0-2.847s-2.078-1.882-3.9-1.882h-31.846c-.214 0-.25 0-.522-.29-.271-.285-.506-.84-.521-1.382-.016-.543.177-1.056.422-1.32.245-.262.26-.289.621-.289h29.587c3.803 0 6.303-1.949 6.905-3.811.302-.931.258-1.896-.472-2.783-.73-.888-2.395-1.576-4.173-1.576h-30.827c-.263 0-.09.044-.299-.226-.208-.269-.397-.83-.347-1.431.048-.6.288-1.235.571-1.576.142-.171.206-.21.223-.225h198.507c.462 0 .723.012.844.016.022.074.05.224.05.53v6.707c0 3.42 3.231 5.775 7.004 5.838 1.887.031 3.79-.523 5.093-1.544 1.304-1.021 1.988-2.448 1.988-4.181v-7.912c0-1.35.975-1.597 1.689-1.608.713-.012 1.54.116 1.54 1.608v7.48c0 3.057 3.55 5.125 7.23 5.242 1.838.06 3.754-.359 5.166-1.286 1.413-.928 2.211-2.301 2.211-3.957v-38.68l8.868-5.725.646-.402v-6.562l15.998-10.358h114.393l.62-.402 56.092-36.348h70.771l.621-.434 20.048-12.996h59.643l5.862 3.796.621.402h13.638l.621-.402 7.254-4.712.62-.402v-24.623l3.28-2.123h20.07l.596-.402 8.595-5.565c1.09.612 2.493 1.013 4.049 1.013 3.43 0 6.185-1.8 6.185-4.02 0-2.222-2.756-4.005-6.185-4.005zm25.536 0c-3.43 0-6.235 1.784-6.235 4.005 0 2.22 2.805 4.02 6.235 4.02s6.21-1.8 6.21-4.02c0-2.221-2.78-4.005-6.21-4.005z" fill="#0073aa" fill-opacity=".882"/><path d="M-219.85 1493.842c-2.89 0-5.293 1.276-5.986 3.007h-11.651l-.621.402-21.413 13.88h-164.646c-1.869 0-3.545.62-4.472 1.463-.926.843-1.27 1.852-1.242 2.815.03.963.399 1.93 1.316 2.75.918.82 2.567 1.464 4.397 1.464h43.522c.354 0 .517.029.795.273.277.245.519.716.546 1.158.028.442-.156.83-.373 1.03-.217.198-.346.289-.968.289h-52.738c-7.428 0-7.573 8.685 0 8.685h52.912c1.256 0 1.825.222 2.136.434.31.212.485.493.447.852-.078.72-.854 1.496-2.583 1.496H-487.81l-.62.402-5.764 3.732-.621.402v16.211l-3.08 2.01h-46.328l-.62.402-7.701 4.986-.621.402v16.002l-3.105 2.01h-20.593l-.621.402-17.215 11.114h-133.122l-.646.402-.248.161v3.908l2.633-1.705h133.147l.62-.401 17.19-11.13h20.643l.596-.402 4.348-2.814.62-.402v-15.986l6.46-4.198h46.326l.62-.402 4.348-2.798.62-.403v-16.228l4.497-2.926h105.574c3.885 0 6.561-1.993 6.782-4.037.11-1.022-.335-2.135-1.54-2.96-1.205-.824-3.096-1.287-5.242-1.287h-52.911c-2.295 0-1.76-3.184 0-3.184h52.738c1.844 0 3.512-.63 4.422-1.464.91-.834 1.225-1.782 1.167-2.718-.058-.936-.498-1.883-1.39-2.67-.893-.788-2.427-1.4-4.199-1.4h-43.521c-.466 0-.66-.1-.944-.354-.284-.253-.508-.705-.522-1.174-.014-.47.193-.91.448-1.142.254-.232.42-.321 1.018-.321h166.411l.622-.403 21.438-13.879h10.31c1.012 1.331 3.094 2.268 5.54 2.268 3.43 0 6.235-1.784 6.235-4.004 0-2.22-2.805-4.02-6.236-4.02h-.009zm204.717 10.538c-3.43 0-6.235 1.816-6.235 4.036 0 2.221 2.805 4.021 6.235 4.021s6.21-1.8 6.21-4.02c0-2.221-2.78-4.038-6.21-4.038zm-23.648.112c-3.43 0-6.236 1.833-6.236 4.053 0 2.221 2.806 4.005 6.236 4.005 3.43 0 6.21-1.784 6.21-4.005 0-2.22-2.781-4.053-6.21-4.053z" fill="#0073aa" fill-opacity=".882"/><path d="M-90.375 1505.152c-3.43 0-6.186 1.832-6.186 4.053 0 2.22 2.756 4.004 6.186 4.004 1.216 0 2.37-.236 3.328-.627l7.577 4.906v27.084l-4.795 3.072H-97.58l-.62.402-4.646 3.008-.621.402v6.546l-8.52 5.5h-65.084l-.621.402-29.237 18.946h-76.013l-.621.402-64.266 41.575h-54.9l-.62.402-83.119 53.815h-65.107l-.621.402-17.836 11.547h-83.291c-2.077 0-3.903.548-5.093 1.351-1.19.803-1.817 1.804-2.012 2.783-.195.979.032 1.95.72 2.814.69.865 2.159 1.657 3.95 1.657h66.028c.739 0 1.03.147 1.366.434.337.287.572.775.572 1.287 0 .512-.235 1-.572 1.287-.336.286-.626.434-1.366.434h-64.364c-1.602 0-2.732-.161-4.248.257-.758.21-1.53.691-1.863 1.206-.334.516-.398 1.012-.398 1.544v33.454l-46.478 30.107-.67.402v86.496c0 .956-.135 1.26-.1 1.303h-20.868v2.75h20.743c.645 0 1.218-.021 1.938-.177s1.574-.565 1.962-1.03c.778-.928.572-1.678.572-2.846v-85.338l46.526-30.107.621-.403v-34.611c0-.175.033-.147.049-.225.17 0 .78-.032 2.21-.032h64.365c1.982 0 3.744-.638 4.769-1.512 1.024-.873 1.416-1.924 1.416-2.959 0-1.035-.392-2.086-1.416-2.959-1.025-.873-2.787-1.512-4.77-1.512h-66.027c-.08 0-.013.055-.199-.177-.184-.232-.295-.722-.199-1.206.097-.484.384-.928.82-1.222.436-.294.96-.499 2.012-.499h85.057l.621-.402 17.836-11.548h65.107l.62-.402 83.119-53.814h54.9l.62-.402 64.216-41.575h76.037l.67-.402 29.213-18.947h65.058l.67-.402 9.738-6.304.62-.402v-6.546l3.404-2.204h13.34l.621-.402 6.011-3.892.622-.402v-29.368l-.622-.402-8.594-5.548c.181-.378.322-.758.322-1.175 0-2.22-2.83-4.052-6.26-4.052z" fill="#23282d"/><path d="M-139.511 1505.265c-1.715 0-3.276.448-4.397 1.174h-19.401l-.844.547-4.322 2.815h-65.01l-.845.546-16.966 10.985h-77.678l-.795.531-26.878 17.417-.845.515v9.136c-2.681.447-4.694 2.005-4.694 3.876 0 2.22 2.83 4.02 6.26 4.02 3.43 0 6.184-1.8 6.184-4.02 0-1.19-.795-2.24-2.062-2.975v-8.492l25.239-16.34h77.628l.844-.515 16.991-11.017h64.959l.844-.515 4.396-2.83h15.303c.593 1.823 3.1 3.2 6.085 3.2 3.43 0 6.186-1.816 6.186-4.037 0-2.22-2.756-4.021-6.186-4.021z" fill="#0073aa" fill-opacity=".882"/><path d="M-114.024 1505.265c-3.43 0-6.186 1.8-6.186 4.02 0 .395.11.783.274 1.143l-10.856 7.028h-98.57l-.67.402-17.713 11.468h-47.347l-.62.402-45.037 29.159h-126.342l-.62.402-32.27 20.891-.621.402v6.578l-9.515 6.16-.62.434v8.831l-1.79 1.141c-2.168-1.25-5.02-2.01-8.147-2.01-6.765 0-12.221 3.565-12.221 7.945 0 4.38 5.456 7.913 12.221 7.913 6.766 0 12.272-3.533 12.272-7.913 0-1.36-.533-2.644-1.466-3.764-.01-.012.009-.012 0-.015l2.757-1.753.621-.402v-8.862l9.514-6.16.621-.402v-6.562l31.052-20.104h126.341l.621-.402 45.012-29.159h47.347l.621-.402 17.712-11.467h98.62l.62-.402 10.98-7.141c.982.42 2.138.66 3.404.66 3.43 0 6.21-1.817 6.21-4.038 0-2.22-2.78-4.02-6.21-4.02z" fill="#0073aa" fill-opacity=".882"/><path d="M-90.187 1520.93c-3.43 0-6.185 1.785-6.185 4.005 0 1.228.875 2.304 2.21 3.04v1.125l-11.029 7.141h-83.516l-.62.402-33.908 21.954h-61.508l-.62.402-45.708 29.56h-52.067c-.357 0-.707.065-1.02.178-2.602.476-4.52 1.988-4.52 3.827 0 2.221 2.756 4.021 6.185 4.021 3.43 0 6.21-1.8 6.21-4.02 0-.443-.144-.857-.348-1.255h47.323l.62-.402 45.659-29.561h61.556l.621-.402 33.907-21.954h83.518l.62-.401 12.273-7.946.62-.402v-1.319c3.302-.093 5.938-1.827 5.938-3.989 0-2.22-2.78-4.004-6.21-4.004z" fill="#23282d"/><path d="M-15.117 1521.525c-3.43 0-6.235 1.8-6.235 4.021 0 2.22 2.805 4.005 6.235 4.005s6.21-1.784 6.21-4.005c0-2.22-2.78-4.02-6.21-4.02zm-23.649.112c-3.43 0-6.235 1.8-6.235 4.02 0 2.222 2.805 4.006 6.235 4.006s6.21-1.784 6.21-4.005c0-2.22-2.78-4.02-6.21-4.02z" fill="#0073aa" fill-opacity=".882"/><path d="M-89.451 1537.206c-3.385 0-6.162 1.777-6.236 3.957l-3.726 1.415h-87.864l-.844.514-32.194 20.86h-61.903l-.845.546-64.636 41.832h-26.481l-2.236-.836c.17-.368.323-.74.323-1.142 0-2.22-2.78-4.004-6.21-4.004s-6.186 1.784-6.186 4.004c0 2.221 2.756 4.037 6.186 4.037.62 0 1.223-.082 1.788-.193l4.1 1.544.67.258h30.43l.844-.547 64.563-41.817h61.904l.844-.546 32.193-20.844h87.143l.621-.257 4.025-1.528c1.04.497 2.338.804 3.726.804 3.43 0 6.21-1.784 6.21-4.005 0-2.22-2.78-4.053-6.21-4.053z" fill="#23282d"/><path d="M-337.842 1542.572c-3.43 0-6.185 1.8-6.185 4.02 0 2.221 2.756 4.005 6.185 4.005 3.43 0 6.21-1.784 6.21-4.005 0-2.22-2.78-4.02-6.21-4.02z" fill="#0073aa" fill-opacity=".882"/><path d="M-179.466 1547.96l-.62.402-34.755 22.516h-65.504l-.622.403-65.405 42.346h-64.166l-.62.386-64.512 41.785h-178.979c-.75 0-1.376 0-2.011.03-.636.035-1.474.132-2.211.563-.738.432-.973.985-1.068 1.432-.095.446-.075.901-.075 1.463v19.895l-.943.611h-9.241l-.621.402-6.161 4.005-.621.402v49.519l-46.578 30.156-.621.402v23.689l-3.553 2.494h-.273v2.75h2.088l.62-.434 4.795-3.297.571-.402v-23.675l46.578-30.14.621-.402v-49.503l4.92-3.217h9.215l.621-.402 2.21-1.4.622-.401v-21.053c0-.355.033-.51.048-.708.307 0 .544-.03 1.069-.03h180.742l.62-.403 64.537-41.767h64.166l.621-.402 65.405-42.347h65.482l.62-.402 34.755-22.516h50.302l7.403 4.793a2.85 2.85 0 00-.473 1.543c0 2.221 2.805 4.021 6.236 4.021 3.43 0 6.185-1.8 6.185-4.02 0-2.221-2.756-4.005-6.185-4.005a9.044 9.044 0 00-2.832.45l-7.925-5.13-.62-.403h-53.858z" fill="#23282d"/><path d="M-89.097 1552.576c-3.43 0-6.186 1.832-6.186 4.052 0 .927.505 1.75 1.317 2.429l-16.47 10.663h-61.009l-.447.258-29.237 18.93h-27.625l-.397.257-120.006 77.697h-13.414c-.652-1.78-3.123-3.12-6.061-3.12-3.43 0-6.21 1.816-6.21 4.037 0 2.22 2.78 4.004 6.21 4.004 2.938 0 5.409-1.314 6.061-3.087h14.607l.398-.29 120.008-77.666h27.647l.398-.257 29.213-18.93h61.058l.398-.273 17.066-11.049a9.002 9.002 0 002.683.402c3.43 0 6.21-1.784 6.21-4.004 0-2.221-2.78-4.053-6.21-4.053zm24.666.466c-3.43 0-6.185 1.784-6.185 4.005 0 2.22 2.756 4.02 6.185 4.02 3.43 0 6.26-1.8 6.26-4.02 0-2.22-2.83-4.005-6.26-4.005z" fill="#0073aa" fill-opacity=".882"/><path d="M-94.255 1563.963l-.398.257-14.035 9.087h-59.744l-.397.29-28.294 18.285h-27.823l-.398.258-133.37 86.367h-3.85c-.668-1.76-3.138-3.072-6.062-3.072-3.43 0-6.21 1.784-6.21 4.005 0 2.22 2.78 4.02 6.21 4.02 2.953 0 5.424-1.333 6.061-3.12h5.045l.397-.29 133.347-86.334h27.847l.398-.273 28.296-18.303h59.692l.447-.258 13.986-9.087h15.898l7.353 4.793c-.468.565-.746 1.196-.746 1.882 0 2.22 2.756 4.02 6.186 4.02s6.26-1.8 6.26-4.02c0-2.22-2.831-4.004-6.26-4.004-1.322 0-2.524.254-3.528.707l-7.7-4.953-.398-.258h-18.208z" fill="#0073aa" fill-opacity=".882"/><path d="M-89.088 1569.013c-3.061 0-5.55 1.442-6.061 3.329h-3.181l-.398.257-6.434 4.15h-18.008l-.398.257-3.676 2.381-.398.258v12.818l-7.279 4.728h-50.329l-.447.29-4.795 3.088h-30.207l-.398.258-125.893 81.508-.398.274v7.559l-40.365 26.151h-121.82l-8.025-5.195c.942-.705 1.54-1.6 1.54-2.606 0-2.22-2.755-4.02-6.185-4.02-3.429 0-6.21 1.8-6.21 4.02 0 2.221 2.78 4.021 6.21 4.021.839 0 1.607-.096 2.336-.29l8.72 5.646.397.258h124.229l.448-.258 41.16-26.666.398-.29v-7.559l125.076-80.978h30.157l.422-.258 4.794-3.12h50.304l.447-.258 8.098-5.275.447-.257v-12.851l2.783-1.802h18.06l.422-.29 6.359-4.116h2.21c.768 1.656 3.079 2.862 5.888 2.862 3.43 0 6.21-1.8 6.21-4.02 0-2.221-2.78-4.005-6.21-4.005z" fill="#0073aa" fill-opacity=".882"/><path d="M-49.561 1576.598c-3.43 0-6.26 1.8-6.26 4.02 0 1.912 2.083 3.516 4.843 3.925v6.77l-7.055 4.52H-90.92l-.448.258-24.666 15.97h-59.743l-.447.257-5.093 3.33h-29.934l-.398.289-112.927 73.114-.398.258v8.218l-107.387 69.495h-12.296l-.398.257-20.592 13.365a10.201 10.201 0 00-3.677-.692c-3.994 0-7.253 2.095-7.253 4.68 0 2.586 3.26 4.664 7.253 4.664 3.993 0 7.229-2.078 7.229-4.664 0-1.042-.578-1.974-1.466-2.75l20.095-13.027h12.321l.398-.258 108.185-70.041.422-.258v-8.25l112.083-72.568h29.861l.447-.258 5.092-3.329h59.817l.398-.29 24.619-15.937h32.988l.447-.273 7.85-5.083.398-.29v-7.478c2.74-.418 4.77-2.023 4.77-3.924 0-2.221-2.756-4.021-6.186-4.021z" fill="#0073aa" fill-opacity=".882"/><path d="M-96.778 1579.959l-.398.257-5.267 3.378-.398.29v8.716l-18.06 11.725h-59.519l-.398.289-4.646 2.975h-30.381l-.447.258-119.732 77.553-.398.257v7.753l-48.092 31.137h-29.808l-.398.258-43.621 28.226-.398.273v10.519l-6.41 4.15a10.357 10.357 0 00-3.676-.692c-4.088 0-7.403 2.147-7.403 4.793 0 2.646 3.315 4.793 7.403 4.793 4.088 0 7.378-2.146 7.378-4.793 0-1.102-.625-2.086-1.59-2.895l6.682-4.327.448-.257v-10.551l42.776-27.663h29.809l.398-.258 48.886-31.684.448-.257v-7.769l118.939-76.99h30.381l.447-.257 4.595-3.008h59.468l.399-.258 18.954-12.272.397-.257v-8.717l4.397-2.863h18.954l6.533 4.246c-1.034.718-1.664 1.691-1.664 2.75 0 2.22 2.756 4.004 6.185 4.004 3.43 0 6.26-1.783 6.26-4.004 0-2.22-2.83-4.053-6.26-4.053-.758 0-1.44.096-2.111.258l-7.403-4.777-.447-.258h-21.215z" fill="#0073aa" fill-opacity=".882"/><path d="M-113.074 1584.736c-3.43 0-6.186 1.832-6.186 4.052 0 1.87 1.978 3.41 4.646 3.86v2.123l-8.645 5.598h-60.488l-.398.257-5.093 3.297h-29.039l-.398.258-123.062 79.644-.397.29v8.138l-43.274 28.017h-29.884l-.447.258-49.236 31.877c-1.19-.53-2.618-.852-4.173-.852-.255 0-.546-.016-.795 0-3.732.245-6.632 2.295-6.632 4.776 0 2.647 3.34 4.793 7.427 4.793s7.403-2.146 7.403-4.793c0-.97-.478-1.851-1.242-2.605l48.838-31.62h29.933l.447-.29 44.069-28.499.397-.29v-8.138l122.169-79.13h29.088l.398-.29 5.068-3.264h60.511l.398-.29 9.44-6.111.447-.258v-2.831c2.83-.375 4.968-1.98 4.968-3.924 0-2.22-2.83-4.053-6.26-4.053z" fill="#0073aa" fill-opacity=".882"/><path d="M-89.078 1584.865c-3.43 0-6.185 1.784-6.185 4.004 0 .84.387 1.655 1.068 2.3l-25.115 16.566h-58.949l-.398.257-6.508 3.909h-29.709l-.398.273-113.895 73.725-.447.274v8.975l-54.104 35.012h-18.655l-.448.257-39.225 25.427a10.865 10.865 0 00-3.155-.45c-4.087 0-7.377 2.13-7.377 4.777 0 2.646 3.29 4.793 7.377 4.793 4.088 0 7.403-2.147 7.403-4.793 0-1.25-.779-2.349-1.987-3.201l38.603-24.977h18.655l.448-.257 54.898-35.576.398-.258v-8.958l113.1-73.212h29.587l.447-.24 6.508-3.925h58.975l.447-.258 25.636-16.92a8.751 8.751 0 003.005.515c3.43 0 6.21-1.816 6.21-4.037 0-2.22-2.78-4.004-6.21-4.004z" fill="#0073aa" fill-opacity=".882"/><path d="M-275.723 1587.29c-3.43 0-6.21 1.8-6.21 4.02 0 .17.067.32.099.483l-75.343 48.765h-32.889l-.67.402-75.892 49.15h-72.485l-.62.402-59.794 38.664h-20.271l-.62.402-43.446 28.162-.621.402v93.556l-31.896 20.668h-32.244v2.75h33.982l.621-.402 33.164-21.472.621-.402v-93.556l42.206-27.357h20.271l.62-.402 59.794-38.664h72.487l.62-.402 75.866-49.15h32.989l.62-.419 74.997-48.54c1.087.606 2.503.965 4.05.965 3.43 0 6.184-1.783 6.184-4.004 0-2.22-2.756-4.021-6.185-4.021z" fill="#23282d"/><path d="M-284.428 1602.131c-3.43 0-6.185 1.833-6.185 4.053 0 1.782 1.818 3.252 4.298 3.78v8.347l-58.874 38.1h-52.117c-325.26 111.858-288.581 196.24 1.79 2.749h52.116l.621-.402 60.09-38.905.62-.402v-9.538c2.278-.596 3.9-2.043 3.9-3.73 0-2.222-2.83-4.054-6.259-4.054z" fill="#23282d"/><path d="M-63.84 1602.164l-.62.402-15.5 10.035-.622.403v49.004l-27.102 17.547h-27.872l-.596.402-5.912 3.812h-44.018l-.596.402-70.896 45.902-.621.402v64.879l-116.48 75.43-.67.402v17.691l-50.427 32.617-.62.435v32.231l.62.402 48.887 31.668v17.274l-7.7 4.953h-16.298l-61.209-39.629v-75.623l-.62-.402-6.336-4.1-.62-.403h-258.968v2.75h257.254l5.042 3.297v75.64l.622.401 62.45 40.417.621.402h19.823l.62-.402 8.943-5.758.621-.402v-19.557l-.62-.403-48.888-31.651v-30.011l50.454-32.666.62-.402v-17.627l116.505-75.43.621-.403v-64.88l69.655-45.098h43.968l.621-.402 5.937-3.812h27.846l.62-.402 28.344-18.35.62-.403v-49.004l14.26-9.232h99.065l5.714 3.7v31.715l.248.322 3.428 3.812.596.675h196.37l5.49 3.555.62.401h47.644l.621-.401 16.023-10.374.671-.434v-10.374l14.706-9.554h38.553l8.695 5.63.62.401h18.408l6.484 4.182.596.402h14.234l6.235 4.069c-.803.741-1.291 1.652-1.291 2.637 0 2.487 3.01 4.504 6.732 4.504 3.72 0 6.731-2.017 6.731-4.504 0-2.487-3.01-4.503-6.731-4.503-.696 0-1.357.078-1.988.209l-7.353-4.76-.62-.403h-14.161l-6.458-4.182-.67-.402h-18.383l-8.72-5.629-.62-.402H327.43l-.62.402-16.023 10.39-.622.402v10.373l-14.83 9.57H251.22l-5.49-3.554-.621-.402H49.436l-2.484-2.783v-32.134l-.621-.402-6.956-4.504-.621-.402H-63.841z" fill="#0073aa" fill-opacity=".882"/><path d="M522.251 1605.863c-3.72 0-6.732 2.016-6.732 4.503 0 .59.165 1.141.473 1.657l-44.59 28.9h-99.711l-2.832-1.865v-5.388l-.72-.257-5.888-2.171-.348-.145h-13.961l-.447.29-5.515 3.586-.398.258v10.422l-18.481 11.998-.448.258v48.361l.448.258 36.268 23.482.398.29H370.1l10.309 6.883.398.273h16.966l2.957 1.592.398.225h23.028l165.716 107.34v84.292l.447.29 11.229 7.286v62.837l.397.29 45.41 29.383v14.877l.398.29 9.911 6.417h4.025l-11.501-7.447v-14.908l-.398-.29-45.386-29.384v-62.821l-.422-.29-11.277-7.301v-84.246l-.398-.273-166.51-107.919-.447-.257h-23.2l-2.881-1.577-.398-.241h-16.867l-10.31-6.9-.447-.257h-10.284l-35.473-22.967v-46.818l18.482-11.966.447-.273v-10.47l4.72-3.04h12.023l4.869 1.833v5.05l.397.29 3.701 2.397.447.257h101.996l.398-.257 44.634-28.912c1.208.772 2.84 1.271 4.646 1.271 3.721 0 6.731-2.016 6.731-4.503s-3.01-4.504-6.731-4.504z" fill="#0073aa" fill-opacity=".882"/><path d="M-297.35 1610.955c-3.43 0-6.21 1.8-6.21 4.02 0 2.221 2.78 4.021 6.21 4.021s6.236-1.8 6.236-4.02c0-2.222-2.805-4.022-6.236-4.022zm261.487.724l-.62.402-32.667 21.165-.621.402v29.674l-34.007 22.017h-25.289l-.62.403-9.217 5.95h-44.315l-.62.403-62.577 40.545-.62.402v65.717l-116.877 75.655-.621.402v17.065l-50.478 32.681-.62.403v24.334l.62.402 49.21 31.894v25.33l-14.706 9.521h-26.706l-65.755-42.572v-72.937l-.274-.322-3.677-4.117-.62-.691h-251.094v2.75h248.649l2.757 3.104v73.355l.647.402 66.971 43.393.621.386h30.233l.62-.386 15.948-10.325.62-.402v-27.647l-.62-.402-49.21-31.877v-22.05l50.501-32.681.621-.402v-17.08l116.853-75.672.62-.402v-65.684l61.332-39.725h44.317l.62-.403 9.216-5.966h25.288l.621-.402 35.25-22.822.621-.402v-29.673l31.423-20.362h61.209l3.056 1.979v27.728l.62.402 14.706 9.52.621.403h194.58l6.683 2.525.497.16h54.377l.621-.402 22.88-14.812.621-.402v-10.181l11.874-7.655h29.585l8.098 5.21.621.403h15.352l6.335 4.133c-.693.708-1.094 1.551-1.094 2.46 0 2.488 3.012 4.504 6.732 4.504s6.732-2.016 6.732-4.503-3.011-4.488-6.732-4.488c-.815 0-1.587.097-2.31.274l-7.253-4.696-.621-.434h-15.426l-8.049-5.211-.62-.402h-33.115l-.62.402-13.117 8.46-.62.402v10.164l-21.662 14.025h-51.395l-6.782-2.525-.522-.16H47.862l-13.463-8.718v-27.728l-.621-.402-4.298-2.782-.62-.402h-64.737z" fill="#23282d"/><path d="M-65.523 1614.799c-4.182 0-7.577 2.198-7.577 4.906 0 2.707 3.395 4.905 7.577 4.905s7.577-2.198 7.577-4.905c0-2.708-3.395-4.906-7.577-4.906z" fill="#0073aa" fill-opacity=".882"/><path d="M-136.965 1615.973c-3.782 0-6.913 1.787-7.478 4.133h-65.356l-.398.29-108.232 70.042-.398.29v7.912l-111.138 71.956h-14.26l-.447.258-13.016 8.427-.398.29v9.184l-4.521 2.91h-13.115l-9.415-6.095v-24.753c3.584-.334 6.31-2.316 6.31-4.729 0-2.646-3.29-4.776-7.378-4.776s-7.403 2.13-7.403 4.777c0 2.242 2.4 4.125 5.614 4.647v25.604l.447.258 10.235 6.627.398.29h15.501l.447-.29 5.316-3.442.398-.258v-9.184l12.222-7.912h14.259l.398-.258 111.983-72.503.398-.258v-7.913l107.39-69.56h64.264c.76 2.189 3.77 3.844 7.378 3.844 4.182 0 7.577-2.198 7.577-4.905 0-2.708-3.395-4.906-7.577-4.906z" fill="#23282d"/><path d="M-113.492 1615.973c-3.89 0-7.098 1.897-7.527 4.342h-2.086l-.398.258-11.229 7.27h-78.248l-.398.289-98.843 63.962-.398.258v8.315l-114.467 74.111h-5.415l-.447.274-7.775 5.066c-1.204-.583-2.676-.949-4.298-.949-3.994 0-7.23 2.095-7.23 4.68 0 2.586 3.236 4.696 7.23 4.696s7.204-2.11 7.204-4.696c0-.87-.38-1.683-1.019-2.38l7.527-4.84h5.415l.447-.258 115.263-74.659.398-.273v-8.3l97.997-63.447h78.2l.447-.258 11.203-7.285h1.143c.87 2.085 3.807 3.635 7.303 3.635 4.182 0 7.577-2.198 7.577-4.906 0-2.707-3.395-4.905-7.577-4.905z" fill="#23282d"/><path d="M-91.036 1615.973c-4.181 0-7.576 2.198-7.576 4.905 0 1.273.758 2.426 1.987 3.297l-5.714 3.7h-19.301l-.447.29-4.87 3.151-.446.258v7.832l-7.254 4.697h-65.754l-.448.257-158.436 102.595-.398.257v9.57c-3.472.446-6.11 2.43-6.11 4.809 0 2.707 3.394 4.905 7.576 4.905 4.182 0 7.552-2.198 7.552-4.905 0-2.398-2.671-4.384-6.185-4.809v-8.797l157.591-102.048h65.804l.398-.29 8.123-5.243.397-.258v-7.8l4.1-2.638h19.276l.447-.257 6.36-4.15c.997.313 2.145.483 3.328.483 4.182 0 7.576-2.198 7.576-4.906.001-2.707-3.394-4.905-7.576-4.905z" fill="#23282d"/><path d="M-15.618 1615.973c-4.182 0-7.577 2.198-7.577 4.905 0 2.708 3.395 4.906 7.577 4.906s7.577-2.198 7.577-4.906c0-2.707-3.395-4.905-7.577-4.905zm32.019 0c-4.182 0-7.577 2.198-7.577 4.905 0 2.708 3.395 4.906 7.577 4.906s7.577-2.198 7.577-4.906c0-2.707-3.395-4.905-7.577-4.905zm328.299 10.872l-.397.258-8.993 5.854-.447.257v11.114l-18.978 12.272-.447.29.05.401 1.142 49.665.05.37.397.258 39.448 25.78.398.258h.57l7.503.113 9.961 6.417.398.29h20.892l3.105 2.235.447.29h23.475l162.586 105.04v84.693l.447.29 10.73 6.932v62.852l.423.258 45.012 29.16v13.766l.397.273 9.788 6.337h4.048l-11.402-7.382v-13.767l-.398-.29-45.038-29.127v-62.82l-.397-.258-10.781-6.964v-84.694l-.398-.257-163.43-105.618-.398-.258h-23.4l-3.18-2.235-.447-.29h-20.89l-9.912-6.433-.398-.257-.596-.015-7.576-.113-38.603-25.234-1.143-48.909 18.979-12.304.397-.257v-11.098l8.198-5.307h22.232l6.608 4.278c-1.039.792-1.69 1.806-1.69 2.943 0 2.487 3.012 4.504 6.732 4.504 3.721 0 6.782-2.017 6.782-4.504 0-2.487-3.06-4.487-6.782-4.487-.999 0-1.93.125-2.782.386l-7.279-4.696-.397-.258h-24.618z" fill="#0073aa" fill-opacity=".882"/><path d="M528.028 1627.36c-3.72 0-6.756 2.016-6.756 4.503 0 .887.375 1.716 1.043 2.413l-22.93 14.844h-129.57l-.447.257-33.66 21.793-.398.29v30.01l.397.257 29.909 19.364.397.258h6.632l12.967 8.428.448.257h17.488l3.204 2.059.398.257h23.376l172.298 111.554v83.375l.397.29 10.533 6.803v63.319l.422.29 37.188 24.092.397.258h37.386l4.894 3.185v26.714l.398.257.124.08h4.025l-1.714-1.11v-26.715l-.398-.273-5.738-3.684-.398-.289h-37.436l-36.292-23.546v-63.335l-.447-.29-10.508-6.82v-83.374l-.398-.258-173.142-112.068-.398-.29h-23.425l-3.155-2.058-.422-.258h-17.463l-13.017-8.411-.397-.274h-6.682l-29.015-18.785v-28.532l32.765-21.245h129.67l.448-.29 23.251-15.07h.05a9.09 9.09 0 003.7.773c3.721 0 6.732-2.017 6.732-4.503 0-2.487-3.01-4.504-6.731-4.504z" fill="#0073aa" fill-opacity=".882"/><path d="M-136.968 1632.265c-3.398 0-6.244 1.446-7.204 3.442h-59.071l-.398.257-77.33 50.052c-1.282-.646-2.894-1.03-4.645-1.03-4.182 0-7.577 2.199-7.577 4.906 0 2.708 3.395 4.906 7.577 4.906s7.577-2.198 7.577-4.906c0-.898-.417-1.736-1.068-2.46l77.057-49.89h57.556c.303 2.527 3.545 4.535 7.526 4.535 4.182 0 7.577-2.198 7.577-4.906 0-2.707-3.395-4.905-7.577-4.905z" fill="#23282d"/><path d="M-113.493 1632.265c-4.182 0-7.577 2.198-7.577 4.906 0 1.14.631 2.174 1.64 3.008l-11.9 7.72h-8.148l-.447.273-17.637 11.419h-48.614l-.397.257-89.13 57.707-.397.257v24.833l-26.878 17.434-.447.257v30.3l-21.761 14.09c-1.172-.477-2.585-.756-4.074-.756-.262 0-.491-.016-.746 0-3.817.25-6.806 2.335-6.806 4.873 0 2.708 3.37 4.906 7.552 4.906 4.182 0 7.577-2.198 7.577-4.906 0-1.081-.55-2.058-1.465-2.863l22.157-14.314.398-.273v-30.286l26.878-17.434.447-.257v-24.849l88.285-57.143h48.588l.447-.258 17.662-11.435h8.099l.397-.257 12.495-8.09c1.119.422 2.414.691 3.8.691 4.183 0 7.578-2.198 7.578-4.905 0-2.708-3.395-4.906-7.577-4.906z" fill="#23282d"/><path d="M-91.037 1632.265c-4.182 0-7.577 2.198-7.577 4.906 0 1.42.944 2.691 2.435 3.586l-5.043 3.265h-17.712l-.398.29-29.586 19.155H-202.8l-.447.273-85.95 55.647-.397.258v24.607l-27.425 17.74-.398.257v36.075l-27.845 18.062c-1.157-.464-2.54-.74-4-.74-4.182 0-7.552 2.198-7.552 4.905 0 2.707 3.37 4.89 7.552 4.89 4.182 0 7.577-2.182 7.577-4.89 0-1.096-.551-2.11-1.49-2.927l28.193-18.239.398-.29v-36.059l27.375-17.755.447-.258v-24.624l85.155-55.101h53.806l.422-.257 29.634-19.187h17.663l.447-.258 5.888-3.844c.836.206 1.76.322 2.707.322 4.182 0 7.577-2.198 7.577-4.906 0-2.707-3.395-4.905-7.577-4.905z" fill="#23282d"/><path d="M-39.094 1632.265c-4.182 0-7.577 2.198-7.577 4.906 0 2.707 3.395 4.905 7.577 4.905s7.577-2.198 7.577-4.905c0-2.708-3.395-4.906-7.577-4.906zm23.476 0c-4.182 0-7.577 2.198-7.577 4.906 0 2.707 3.395 4.905 7.577 4.905s7.577-2.198 7.577-4.905c0-2.708-3.395-4.906-7.577-4.906zm32.019 0c-4.182 0-7.577 2.198-7.577 4.906 0 2.707 3.395 4.905 7.577 4.905s7.577-2.198 7.577-4.905c0-2.708-3.395-4.906-7.577-4.906z" fill="#0073aa" fill-opacity=".882"/><path d="M-111.799 1647.801c-4.182 0-7.577 2.198-7.577 4.906 0 .968.444 1.877 1.193 2.637l-18.78 12.16h-63.271l-.397.289-83.018 53.718-.398.257v24.607l-28.12 18.207-.422.289v42.685l-69.058 44.694h-44.865l-.398.258-8.297 5.388-.422.257v10.728l.422.29 8.645 5.597c-.563.626-.92 1.33-.92 2.106 0 2.343 2.916 4.246 6.533 4.246 3.618 0 6.558-1.903 6.558-4.246 0-2.342-2.94-4.23-6.558-4.23-1.391 0-2.689.261-3.75.74l-8.1-5.275v-9.168l7.478-4.856h44.865l.398-.258 69.877-45.242.447-.257v-42.717l28.12-18.206.398-.257v-24.593l82.174-53.219h63.247l.447-.257 19.128-12.416c1.247.585 2.763.948 4.421.948 4.182 0 7.577-2.198 7.577-4.905 0-2.707-3.395-4.905-7.577-4.906z" fill="#23282d"/><path d="M-162.995 1647.913c-3.675 0-6.738 1.709-7.427 3.957h-31.847l-.399.257-99.141 64.204-.398.29v24.27l-48.192 31.201-.398.258v20.473c-3.422.476-6.01 2.454-6.01 4.81 0 2.706 3.369 4.904 7.55 4.904 4.183 0 7.578-2.198 7.578-4.905 0-2.419-2.726-4.44-6.285-4.84v-19.702l48.142-31.154.447-.257v-24.318l98.297-63.657h30.654c.656 2.275 3.723 4.02 7.427 4.02 4.182 0 7.577-2.197 7.577-4.905s-3.395-4.906-7.577-4.906z" fill="#23282d"/><path d="M-88.992 1648.027c-4.182 0-7.577 2.198-7.577 4.905 0 1.192.671 2.287 1.763 3.136l-6.856 4.407-.397.29v9.665l-7.08 4.616h-85.502l-.397.257-76.984 49.826-.397.258v24.8l-26.308 17.032-.398.258v44.292l-89.404 57.915-.398.258v10.776c-3.305.217-5.888 2.018-5.888 4.214 0 2.343 2.94 4.246 6.558 4.246s6.509-1.904 6.509-4.246c0-1.845-1.819-3.388-4.347-3.973v-10.277l89.408-57.886.398-.258v-44.292l26.282-17 .422-.29v-24.831l76.089-49.247h85.553l.398-.29 7.925-5.098.398-.29v-9.665l6.608-4.294h.049c1.065.37 2.284.595 3.577.595 4.182 0 7.577-2.198 7.577-4.906 0-2.707-3.395-4.905-7.577-4.905z" fill="#23282d"/><path d="M-39.784 1648.236c-4.182 0-7.576 2.198-7.576 4.905 0 2.708 3.394 4.906 7.576 4.906 4.182 0 7.552-2.198 7.552-4.906 0-2.707-3.37-4.905-7.552-4.905zm383.964 4.358c-3.72 0-6.732 2.017-6.732 4.504 0 1.068.561 2.026 1.49 2.798l-10.805 6.98-.398.274v36.332l.398.29 33.609 21.727.422.29h10.135l11.327 7.333.448.29h16.643l3.503 2.268.397.29h22.505l168.572 109.14v84.325l.447.258 10.88 7.06v62.838l.422.289 39.273 25.396.397.29h39.622l3.006 1.946v25.057h2.857v-25.829l-.448-.257-3.85-2.493-.398-.258h-39.596l-38.431-24.881v-62.853l-.447-.29-10.905-7.044v-84.26l-.398-.29-169.466-109.72-.398-.258h-22.456l-3.527-2.3-.398-.257h-16.619l-11.377-7.366-.447-.258h-10.086l-32.79-21.213v-34.869l10.557-6.787a9.328 9.328 0 003.056.515c3.72 0 6.732-2.017 6.732-4.504 0-2.487-3.012-4.503-6.732-4.503zm509.024 2.268c-3.221 0-5.96 1.37-6.856 3.265h-28.442l-.422.258-29.187 18.897-.398.29v19.861l-22.854 14.797-.397.29v78.55l.397.258 34.976 22.646.398.29h28.916l60.19 38.968v19.027l-10.533 6.836-.447.257v20.556l.447.257 8.794 5.71.397.29h24.668l22.63 14.635.448.29h118.491l14.01 9.07.398.273h70.351l43.002 27.841v69.415l.447.257 23.649 15.344v9.28h2.831v-10.052l-.397-.258-23.699-15.343v-69.382l-.397-.258-43.87-28.42-.447-.258h-70.275l-14.035-9.087-.398-.257H937.123l-22.655-14.685-.447-.258h-24.618l-8.024-5.178v-19.01l10.532-6.82.447-.29v-20.537l-.447-.274-61.01-39.515-.397-.258h-28.891l-34.132-22.098v-77.072l22.854-14.797.398-.258v-19.862l28.395-18.383h26.951c.37 2.335 3.43 4.166 7.13 4.166 3.947 0 7.13-2.093 7.13-4.648 0-2.555-3.183-4.616-7.13-4.616z" fill="#0073aa" fill-opacity=".882"/><path d="M376.613 1657.098l-.448.257-16.47 10.664-.397.29v19.974l-3.379 3.796-.174.193v18.174l.398.257 12.147 7.865.398.257h8.396l10.135 6.562.447.258h19.128l5.912 2.203.298.113h17.886l176.123 114.03v83.489l.398.29 11.551 7.446v62.242l.447.29 34.678 22.484.422.257h38.927l6.882 4.439v26.472l.398.274 4.471 2.895h4.025l-6.062-3.925v-26.489l-.447-.257-7.651-4.986-.398-.257h-38.926l-33.933-21.97v-62.21l-.398-.257-11.551-7.479v-83.52l-.398-.257-176.968-114.578-.422-.257H413.8l-5.887-2.171-.299-.145h-18.779l-10.16-6.562-.398-.258h-8.396l-11.303-7.318v-16.887l3.328-3.78.224-.208v-19.783l15.576-10.084h84.062l11.551 7.51c-.706.713-1.118 1.575-1.118 2.494 0 2.487 3.012 4.503 6.732 4.503s6.732-2.016 6.732-4.503-3.011-4.504-6.732-4.504a9.157 9.157 0 00-3.577.724l-12.048-7.8-.398-.258h-86.297z" fill="#0073aa" fill-opacity=".882"/><path d="M391.339 1660.25l-.398.257-8.396 5.452a9.353 9.353 0 00-3.205-.579c-.232 0-.469-.015-.695 0-3.397.23-6.086 2.172-6.086 4.504 0 2.486 3.06 4.503 6.782 4.503 3.721 0 6.732-2.017 6.732-4.503 0-1.025-.506-1.978-1.367-2.734l7.825-5.067h65.456l6.11 3.925v6.369l.448.257 8.42 5.452.398.274h23.475l.398-.273 23.102-14.941h218.105l6.508 4.214v8.797c-3.1.505-5.415 2.309-5.415 4.471 0 2.556 3.234 4.616 7.179 4.616 3.953 0 7.13-2.06 7.13-4.616 0-2.325-2.609-4.226-6.062-4.552v-9.489l-.447-.257-7.303-4.729-.398-.29h-220.48l-.447.29-23.078 14.925h-21.066l-7.626-4.921v-6.337l-.398-.258-6.956-4.503-.397-.258h-67.841zm-504.989 2.427c-4.183 0-7.578 2.198-7.578 4.906 0 1.052.52 2.048 1.391 2.847l-1.788.659h-75.418l-.399.257-80.683 52.239-.397.29v24.672l-27.051 17.53-.398.258v42.362l-79.492 51.467h-28.99c-.744-1.814-3.25-3.152-6.284-3.152-3.618 0-6.558 1.903-6.558 4.246 0 2.342 2.94 4.214 6.558 4.214 3.226 0 5.865-1.492 6.409-3.475h29.984l.447-.257 80.31-51.996.447-.29v-42.379l27.027-17.483.422-.257v-24.752l79.814-51.66h75.019l.348-.144 2.832-1.029c1.163.471 2.55.74 4.024.74 4.182 0 7.577-2.198 7.577-4.906 0-2.707-3.395-4.905-7.577-4.905z" fill="#23282d"/><path d="M816.813 1668.612c-3.947 0-7.179 2.093-7.179 4.648 0 1.98 1.933 3.653 4.646 4.31v10.052l-20.891 13.51-.398.29v59.057l-12.321 7.977-.398.258v26.57l.398.257 19.972 12.93.398.29h33.611l63.022 40.803v23.884l-10.855 7.013-.447.29v13.397l.447.257 10.135 6.562.398.257h17.14l23.301 15.087.398.257h121.598l10.532 6.82.398.257h105.052l43.124 27.92v79.37l.397.274 23.65 15.294v6.064h2.831v-6.787l-.398-.29-23.649-15.31v-79.387l-.447-.258-43.919-28.435-.397-.29h-105.077l-10.508-6.818-.397-.257H939.384l-23.276-15.054-.422-.29h-17.165l-9.316-6.03v-11.838l10.906-7.045.397-.257v-25.412l-.397-.29-63.868-41.333-.422-.257h-33.584l-19.128-12.385v-25.09l12.271-7.945.448-.257v-59.123l20.892-13.493.397-.29v-10.47c3.796-.108 6.831-2.13 6.831-4.616 0-2.555-3.182-4.648-7.13-4.648z" fill="#0073aa" fill-opacity=".882"/><path d="M834.003 1668.853c-3.947 0-7.18 2.06-7.18 4.616 0 2.306 2.6 4.23 6.012 4.584v3.297l-33.486 21.648-.398.29v59.089l-11.104 7.157-.397.29v23.996l.397.289 16.867 10.888.448.29h32.294l65.308 42.299v28.917l-10.359 6.707-.447.29v9.552l.447.257 5.888 3.844.447.258h18.234l23.871 15.455.398.258h120.455l11.03 7.14.397.258h118.666l38.082 24.657v84.34l.447.29 18.681 12.094v10.663h2.832v-11.434l-.422-.257-18.705-12.127v-84.324l-.398-.273-38.875-25.187-.448-.273H1074.27l-10.98-7.125-.397-.274H942.388l-23.821-15.423-.398-.29h-18.283l-5.093-3.297v-8.01l10.409-6.738.398-.258V1846.8l-.398-.258-66.151-42.829-.447-.257h-32.292l-16.024-10.406v-22.485l11.08-7.156.447-.257v-59.122l33.46-21.68.397-.258v-4.101c3.14-.49 5.465-2.336 5.465-4.52 0-2.554-3.183-4.615-7.13-4.615zm-116.753 7.044c-3.947 0-7.154 2.061-7.154 4.617 0 2.555 3.208 4.648 7.154 4.648 3.947 0 7.13-2.093 7.13-4.649 0-2.554-3.183-4.616-7.13-4.616zm-342.966.628l-.323.144-6.856 2.558-.696.257v9.457l-4.173 2.734-.447.257v16.936l.447.257 7.577 4.938.447.257h12.048l11.203 7.962.422.321h15.253l4.52.805.174.03h20.394l180.297 116.716v83.279l.398.29 9.067 5.887v63.463l.398.29 32.194 20.843.447.258h39.995l10.185 6.594v26.006l.422.29 6.956 4.503.397.258h250.26l.695.45h4.025l-3.13-2.026-.398-.258H716.237l-6.136-3.989v-25.974l-.397-.29-11.03-7.14-.397-.258h-40.043l-31.35-20.297v-63.496l-.397-.29-9.067-5.886v-83.278l-.398-.258-181.118-117.23-.398-.29h-21.265l-4.695-.804-.173-.031h-14.184l-11.154-7.977-.447-.306h-12.172l-6.782-4.39v-15.392l4.223-2.734.397-.257v-9.168l5.838-2.187h42.603l5.539 3.586c-.966.78-1.565 1.787-1.565 2.88 0 2.486 3.011 4.486 6.732 4.486s6.732-2 6.732-4.487-3.011-4.503-6.732-4.503a9.288 9.288 0 00-2.956.482l-6.161-3.988-.398-.29h-44.59z" fill="#0073aa" fill-opacity=".882"/><path d="M381.705 1680.32c-3.721 0-6.732 2.017-6.732 4.504 0 1.443 1.054 2.698 2.633 3.522l-9.092 5.87-.448.258v10.149l.448.29 6.433 4.181.447.273h8.545l9.812 6.321.398.29h17.24l5.962 3.876.422.29h25.239l133.82 86.607.396.29h29.759l14.83 9.601v105.104l.448.257 10.184 6.594v62.773l.398.273 27.45 17.756.398.29h41.186l13.116 8.508v10.036l.398.289 21.512 13.896.398.257h54.824l.448-.257 24.84-16.084h72.14l20.989 13.59.398.258h111.684l5.043 1.897v10.487h2.831v-11.548l-.72-.258-6.061-2.3-.348-.112H912.135l-20.99-13.56-.398-.289h-74.523l-.447.29-24.792 16.05h-52.54l-20.618-13.38v-10.037l-.398-.289-14.01-9.022-.398-.258h-41.136l-26.606-17.241v-62.789l-.447-.257-10.185-6.594v-105.073l-.398-.257-15.724-10.18-.398-.258h-29.71l-133.82-86.64-.446-.258h-25.19l-6.036-3.908-.398-.257h-17.19l-9.812-6.37-.397-.257h-8.546l-5.689-3.667v-8.604l9.36-6.086c.47.069.94.112 1.441.112 3.721 0 6.732-2 6.732-4.487s-3.011-4.504-6.732-4.504z" fill="#0073aa" fill-opacity=".882"/><path d="M404.78 1680.32c-3.72 0-6.732 2.017-6.732 4.504 0 .795.354 1.523.895 2.17l-7.577 3.732-.57.29v.483l.397 11.274v.338l.398.257 7.924 5.13.398.259h15.203l7.08 4.165.397.225h24.618l133.645 86.56.447.258h30.381l21.96 14.218v91.852l.397.258 46.727 30.252v16.26l.423.258 23.823 15.455.422.258h12.222l15.75 10.18v7.303l.397.258 11.253 7.286.398.257h23.325l15.899 10.261.397.258h26.456l19.03 12.368.447.257h67.492l22.257 14.395.422.273h112.333l7.577 4.906v15.793h2.832v-16.533l-.398-.29-8.47-5.452-.399-.257H922.374l-22.281-14.41-.398-.258H832.15l-19.028-12.336-.447-.29h-26.431l-15.849-10.261-.398-.258h-23.35l-10.409-6.706v-7.32l-.447-.29-16.52-10.711-.422-.258H706.63l-23.029-14.908v-16.228l-.398-.258-46.725-30.252v-91.885l-.447-.29-22.755-14.732-.397-.258h-30.381l-133.695-86.528-.447-.29h-24.668l-7.08-4.132-.397-.258h-15.153l-7.031-4.552-.398-10.438 7.13-3.538c1.124.566 2.507.917 4.024.917 3.721 0 6.782-2 6.782-4.487s-3.06-4.504-6.782-4.504z" fill="#0073aa" fill-opacity=".882"/><path d="M756.402 1295.441v89.39l.398.29 27.994 18.078v41.27a.67.67 0 00.049.257c-.303.474-.497.998-.497 1.544 0 2.22 2.78 4.02 6.21 4.02s6.186-1.8 6.186-4.02c0-2.221-2.756-4.02-6.185-4.02a8.975 8.975 0 00-2.932.498v-40.257l-.397-.29-27.971-18.093v-88.666H756.4z" fill="#23282d"/><path d="M778.734 1295.441v90.71l.398.289 17.19 11.114v40.609l.173.194 4.869 5.452v39.13l.398.29 12.172 7.88c-2.371.576-4.074 2.053-4.074 3.78 0 2.221 2.805 4.021 6.235 4.021s6.21-1.8 6.21-4.02c0-1.832-1.888-3.37-4.471-3.86l-13.637-8.814v-38.922l-.224-.21-4.82-5.451v-40.852l-.447-.257-17.14-11.13v-89.952h-2.832z" fill="#23282d"/><path d="M789.54 1295.441v86.785l.397.258 15.85 10.261c.008.392.266 18.34.397 36.975.065 9.42.1 18.916.05 26.216-.023 3.65-.052 6.745-.124 9.007-.036 1.13-.1 2.049-.149 2.718-.05.668-.172 1.21-.124 1.093-.476 1.149.447 2.147 1.59 3.056 1.142.909 2.698 1.796 4.247 2.59a65.6 65.6 0 002.757 1.318c-2.36.567-4.048 2.02-4.048 3.748 0 2.22 2.78 4.02 6.21 4.02s6.235-1.8 6.235-4.02c0-1.41-1.124-2.63-2.832-3.345-.105-.193-.306-.357-.571-.467 0 0-3.095-1.191-6.012-2.686-1.458-.747-2.861-1.572-3.775-2.3-.915-.727-1.123-1.299-1.068-1.431.18-.437.172-.798.223-1.496.052-.698.113-1.61.149-2.75.072-2.28.1-5.4.124-9.055.049-7.311.016-16.809-.05-26.231-.132-18.844-.397-37.36-.397-37.36v-.371l-.447-.257-15.8-10.278v-85.996h-2.83z" fill="#23282d"/><path d="M799.178 1295.441v84.019l.447.273 17.364 11.226v52.094l-3.9 2.525-.447.257v23.45l.447.273 12.545 8.106v27.373l.695.258 8.868 3.297c-.613.623-.968 1.36-.968 2.156 0 2.22 2.756 4.02 6.185 4.02 3.43 0 6.21-1.8 6.21-4.02 0-2.221-2.78-4.005-6.21-4.005-1.133 0-2.192.189-3.105.531l-8.843-3.297v-27.035l-.398-.273-12.594-8.154v-21.906l3.95-2.541.398-.258v-53.591l-.398-.29-17.389-11.241v-83.247h-2.857z" fill="#23282d"/><path d="M807.127 1295.441v81.96l.422.257 15.824 10.262v60.987l-5.018 3.233-.397.258v15.664l.397.258 16.47 10.663c-.046.2-.074.388-.074.595 0 2.221 2.756 4.021 6.186 4.021 3.429 0 6.21-1.8 6.21-4.02 0-2.221-2.78-4.005-6.21-4.005-2.02 0-3.763.643-4.894 1.608l-15.253-9.875v-14.153l5.018-3.217.398-.29v-62.499l-.398-.29-15.849-10.229v-81.188h-2.832z" fill="#23282d"/><path d="M815.275 1295.441v77.152l.398.257 18.854 12.208v68.064l-7.974 2.975-.695.29v9.923l.398.257 7.551 4.905.423.258h12.967l5.216 3.377v11.902l-7.8 5.05c-1.107-.667-2.562-1.094-4.198-1.094-3.43 0-6.185 1.8-6.185 4.021s2.755 4.037 6.185 4.037c3.43 0 6.21-1.816 6.21-4.037 0-.483-.157-.954-.398-1.383l8.57-5.565.447-.29v-13.413l-.447-.257-6.012-3.892-.397-.29H835.37l-6.682-4.326v-8.123l7.974-2.975.695-.29v-69.865l-.398-.29-18.854-12.19v-76.396h-2.832z" fill="#23282d"/><path d="M823.945 1295.441v74.128l.397.29 18.432 11.933v70.895l-4.048 2.622-.572.37.224.515 1.366 3.329c-3.108.219-5.514 1.885-5.514 3.956 0 2.22 2.755 4.005 6.185 4.005 3.43 0 6.21-1.784 6.21-4.005 0-1.675-1.58-3.096-3.826-3.7l-1.44-3.553 3.85-2.51.398-.257v-72.439l-.398-.257-18.432-11.934v-73.387h-2.832z" fill="#23282d"/><path d="M833.334 1295.441v71.555l.448.258 17.661 11.467v89.117l.398.273 12.72 8.235c-2.495.519-4.299 2.021-4.299 3.812 0 2.22 2.756 4.02 6.185 4.02 3.43 0 6.26-1.8 6.26-4.02 0-1.84-1.957-3.368-4.57-3.844-.044-.195-.184-.375-.398-.515l-13.464-8.717v-89.133l-.398-.258-17.712-11.468v-70.782h-2.831z" fill="#23282d"/><path d="M840.935 1295.441v69.254l.448.258 17.86 11.595v76.493l.174.193 3.9 4.358v2.815c-2.126.636-3.601 2.017-3.601 3.635 0 2.22 2.78 4.02 6.21 4.02s6.235-1.8 6.235-4.02c0-2.17-2.687-3.91-6.011-3.989v-2.895l-.174-.225-3.9-4.359v-76.798l-.447-.29-17.836-11.563v-68.482h-2.857zm-92.425-.236v95.552l.399.31 27.994 19.323v44.114c0 .093.014.186.05.276-.304.507-.497 1.067-.497 1.65 0 2.374 2.78 4.298 6.21 4.298s6.185-1.924 6.185-4.298-2.755-4.298-6.185-4.298c-1.06 0-2.059.21-2.931.533v-43.031l-.398-.31-27.97-19.34v-94.779h-2.858z" fill="#23282d"/><path d="M598.858 1636.388c-3.43 0-6.235 1.832-6.235 4.052 0 2.221 2.805 4.005 6.235 4.005s6.21-1.784 6.21-4.005c0-2.22-2.78-4.052-6.21-4.052zm25.362 0c-3.43 0-6.185 1.832-6.185 4.052 0 2.221 2.756 4.005 6.185 4.005 3.43 0 6.21-1.784 6.21-4.005 0-2.22-2.78-4.052-6.21-4.052zm49.88 0c-3.43 0-6.21 1.832-6.21 4.052 0 2.221 2.78 4.005 6.21 4.005s6.186-1.784 6.186-4.005c0-2.22-2.755-4.052-6.185-4.052zm-25.512.112c-3.43 0-6.235 1.8-6.235 4.02 0 2.221 2.805 4.037 6.235 4.037s6.185-1.816 6.185-4.037c0-2.22-2.755-4.02-6.185-4.02z" fill="#0073aa" fill-opacity=".882"/><path d="M674.1 1636.388c-3.43 0-6.234 1.832-6.234 4.052 0 2.221 2.805 4.005 6.235 4.005s6.21-1.784 6.21-4.005c0-2.22-2.78-4.052-6.21-4.052zm25.362 0c-3.43 0-6.185 1.832-6.185 4.052 0 2.221 2.756 4.005 6.185 4.005 3.43 0 6.21-1.784 6.21-4.005 0-2.22-2.78-4.052-6.21-4.052zm49.881 0c-3.43 0-6.21 1.832-6.21 4.052 0 2.221 2.78 4.005 6.21 4.005s6.185-1.784 6.185-4.005c0-2.22-2.755-4.052-6.185-4.052zm-25.513.112c-3.43 0-6.235 1.8-6.235 4.02 0 2.221 2.805 4.037 6.235 4.037s6.185-1.816 6.185-4.037c.001-2.22-2.755-4.02-6.185-4.02z" fill="#0073aa" fill-opacity=".882"/><path fill="#23282d" stroke="red" stroke-width=".94" d="M31.86 3098.379h602.919v199.063H31.86z"/><path d="M1160.728 1463.263c-3.273 0-6.1 1.097-7.658 2.729h-16.803l-.825.497-30.205 18.264H1047.4l-9.375-5.657-.826-.498h-43.841l-.825.498-78.503 47.364H768.976l-.825.537-38.36 23.105h-13.7l-.825.497-18.718 11.293h-39.78c-1.44-.618-3.2-.995-5.084-.995-.31 0-.623-.02-.924 0-4.515.285-8.055 2.69-8.055 5.577 0 3.08 4.033 5.577 8.979 5.577 4.945 0 8.946-2.497 8.946-5.577 0-.397-.037-.802-.166-1.175h38.426l.825-.498 18.717-11.274h13.7l.826-.497 38.36-23.163h145.02l.825-.498 78.502-47.364h39.25l9.309 5.657.825.498h62.491l.826-.498 30.239-18.245h13.303c.46 2.812 4.18 5 8.814 5 4.945 0 8.946-2.497 8.946-5.577s-4.001-5.577-8.946-5.577z" fill="#23282d"/><path d="M587.764 1503.749c-4.558 0-8.253 2.229-8.253 4.98 0 2.75 3.695 4.999 8.253 4.999.467 0 .908-.033 1.353-.08l10.002 6.056v72.996l.891.518 9.574 5.617.825.458h87.812l2.773.956v.498h39.549l.825-.498 57.08-34.396h206.423l72.165 43.5.462 3.087c-2.882.925-4.886 2.779-4.886 4.94 0 3.08 4.003 5.556 8.946 5.556 4.958 0 8.946-2.477 8.946-5.557 0-2.747-3.16-5.056-7.362-5.516l-.529-3.406-.1-.598-.726-.458-73.749-44.456-.792-.498H796.068l-.825.498-57.011 34.397h-34.298l-3.532-1.195-.66-.259h-87.084l-7.89-4.62v-72.999l-.825-.498-9.838-5.915c1.142-.86 1.882-1.943 1.882-3.127 0-2.75-3.663-4.98-8.22-4.98zm-33.746 19.538c-4.559 0-8.253 2.21-8.253 4.96s3.694 4.979 8.253 4.979c4.558 0 8.286-2.23 8.286-4.98 0-2.749-3.729-4.959-8.286-4.959z" fill="#0073aa" fill-opacity=".882"/><path d="M587.79 1523.287c-4.558 0-8.253 2.21-8.253 4.96s3.695 4.979 8.253 4.979 8.22-2.23 8.22-4.98c0-2.749-3.662-4.959-8.22-4.959z" fill="#0073aa" fill-opacity=".882"/><path d="M773.159 1533.039l-.826.498-49.187 29.696a12.918 12.918 0 00-4.754-.896c-4.945 0-8.946 2.497-8.946 5.577s4 5.577 8.946 5.577c4.944 0 8.946-2.497 8.946-5.577 0-.706-.277-1.37-.66-1.992l48.858-29.477h251.848l84.413 50.927.825.498h32.516c.77 2.592 4.401 4.541 8.782 4.541 4.958 0 8.946-2.497 8.946-5.577s-3.988-5.616-8.946-5.616c-3.57 0-6.62 1.352-8.055 3.246h-30.9l-84.377-50.928-.826-.498H773.16z" fill="#23282d"/><path d="M784.37 1539.612l-.826.458-59.42 35.334a3.387 3.387 0 00-.199.079h-15.581l-8.782-5.258-.528-.32h-28.756l-.528.32-11.422 6.89h-25.154l-.529.34-9.276 5.616c-1.586-.895-3.698-1.454-6.008-1.454-4.944 0-8.946 2.497-8.946 5.577s4.002 5.577 8.946 5.577c4.946 0 8.946-2.497 8.946-5.577 0-.799-.275-1.544-.76-2.231l9.244-5.577h25.057l.594-.32 11.356-6.89h25.716l8.65 5.257.594.32h16.836c.93.755 2.701.912 3.953.35.187-.082.357-.18.504-.29l58.663-34.795h235.868l114.453 69.033v11.313l-24.594 14.819h-14.129c-1.243-2.146-4.476-3.705-8.351-3.705-4.945 0-8.946 2.498-8.946 5.577 0 3.08 4.001 5.577 8.946 5.577 4.095 0 7.552-1.706 8.616-4.043h16.241l.825-.497 26.245-15.795.826-.498v-14.181l-.826-.498-116.136-70.009-.792-.498H784.37z" fill="#23282d"/><path d="M586.628 1542.281c-4.945 0-8.946 2.497-8.946 5.577 0 2.422 2.514 4.488 5.974 5.258v40.83l.561.339 14.954 9.022v7.927l.595.32 22.018 13.265.529.358h28.225l10.267 6.175.528.338h90.979l.529-.338 65.495-39.517h70.315l95.106 57.382.529.358h130.233l.528-.358 37.171-22.407.528-.358v-17.986l8.32-5.039h25.716l10.002 6.035c-.795.834-1.287 1.787-1.287 2.828 0 3.08 3.988 5.577 8.946 5.577 4.943 0 8.946-2.497 8.946-5.577s-4.004-5.577-8.946-5.577c-1.935 0-3.726.39-5.183 1.036l-10.432-6.295-.529-.319h-28.787l-.529.32-9.475 5.696-.528.358v18.026l-36.05 21.769H985.87l-95.106-57.382-.529-.358H816.75l-.56.358-65.43 39.477h-87.91l-10.168-6.174-.594-.32h-28.19l-20.962-12.627v-7.888l-.53-.359-14.986-9.022v-39.615c4.594-.236 8.154-2.614 8.154-5.537 0-3.08-4.002-5.577-8.946-5.577z" fill="#0073aa" fill-opacity=".882"/><path d="M790.668 1547.06l-.826.499-58.563 35.373h-25.65l-12.116-7.31-.825-.498h-17.364l-.825.498-16.77 10.118c-1.226-2.168-4.516-3.724-8.419-3.724-4.944 0-8.946 2.477-8.946 5.557 0 3.08 4.002 5.577 8.946 5.577 3.408 0 6.314-1.203 7.824-2.948l.594.358 19.874-12.03h12.776l12.115 7.31.825.498h30.304l.825-.499 58.563-35.352h220.981l103.23 62.302v1.673c-3.225.845-5.546 2.828-5.546 5.138 0 3.08 4.067 5.577 9.013 5.577 4.944 0 8.946-2.497 8.946-5.577 0-2.612-2.875-4.792-6.768-5.397v-2.828l-.825-.498-104.943-63.316-.826-.498H790.67z" fill="#23282d"/><path d="M792.657 1554.988l-.826.498-56.878 34.377h-38.394l-4.523-2.748c-.655-2.677-4.333-4.72-8.814-4.72-4.945 0-8.946 2.496-8.946 5.576 0 3.08 4.001 5.577 8.946 5.577 3.09 0 5.788-.967 7.394-2.45l2.774 1.633.825.538h43.082l.825-.538 56.913-34.337h214.84l88.934 53.657v8.724l-9.376 5.656h-81.737l-5.348-3.206c.797-.834 1.287-1.787 1.287-2.829 0-3.08-4.002-5.576-8.946-5.576s-8.946 2.497-8.946 5.576c0 3.08 4.002 5.577 8.946 5.577 1.236 0 2.396-.156 3.467-.438h.065l6.305 3.805.826.498h86.456l.826-.498 10.993-6.672.825-.498v-11.553l-.825-.498-90.584-54.632-.826-.498H792.656z" fill="#23282d"/><path d="M802.93 1569.122l-.826.477-60.575 36.548h-48.892c-.833-2.548-4.454-4.482-8.781-4.482-4.945 0-8.946 2.537-8.946 5.617s4.001 5.577 8.946 5.577c3.636 0 6.72-1.368 8.12-3.307h51.93l.824-.498 60.544-36.528H970.4l8.65 5.895-.66 32.405-9.508 4.183c-.735-.121-1.513-.2-2.31-.2-4.946 0-9.013 2.498-9.013 5.578s4.067 5.577 9.013 5.577c4.944 0 8.946-2.497 8.946-5.577 0-1.239-.654-2.38-1.75-3.307l9.178-3.983 1.121-.498v-.856l.628-33.98.065-.637-.76-.498-10.233-6.95-.825-.558H802.929z" fill="#23282d"/><path d="M807.103 1575.853l-.826.498-62.854 37.923h-67.312l-15.813-9.56-.298.178c-1.434-1.894-4.515-3.227-8.087-3.227-4.945 0-8.98 2.537-8.98 5.617s4.034 5.577 8.98 5.577c3.69 0 6.885-1.4 8.253-3.386l12.776 7.709.825.497H745.8l.826-.497 62.822-37.923h147.265c-1.413.986-2.31 2.278-2.31 3.705 0 3.08 4.001 5.577 8.946 5.577 4.944 0 8.946-2.497 8.946-5.577s-4.002-5.577-8.946-5.577v-1.534H807.105z" fill="#23282d"/><path d="M813.798 1583.203l-.826.498-64.901 39.137h-79.656l-11.092-6.692-.826-.478H635.14l-9.409-5.697c.368-.61.595-1.262.595-1.952 0-3.08-4.002-5.577-8.946-5.577-4.945 0-8.946 2.497-8.946 5.577s4.001 5.577 8.946 5.577c1.79 0 3.422-.353 4.82-.916l9.77 5.895.826.499h21.358l11.126 6.672.825.498h84.345l.792-.498 64.936-39.137h126.501l11.884 7.17c-.921.876-1.453 1.94-1.453 3.067 0 3.08 4.002 5.577 8.946 5.577 4.945 0 9.013-2.497 9.013-5.577s-4.067-5.577-9.013-5.577c-1.083 0-2.11.139-3.07.359l-13.106-7.928-.825-.498H813.799zm-251.953-125.268c-4.913 0-8.889 2.497-8.889 5.577s3.976 5.577 8.889 5.577c2.222 0 4.216-.55 5.773-1.394l10.07 6.075.525.358h40.05l73.146 44.416.525.319h154.72l.526-.32 52.843-32.085h50.841l.558-.319 2-1.215c.959.219 1.974.358 3.05.358 4.914 0 8.89-2.497 8.89-5.577s-3.976-5.577-8.89-5.577c-4.912 0-8.954 2.498-8.954 5.577 0 1.54 1.002 2.935 2.624 3.944l-.82.538H898.45l-.526.338-52.777 32.067H693.442l-73.08-44.415-.591-.32h-39.985l-9.873-5.995c.527-.712.82-1.512.82-2.35 0-3.08-3.975-5.577-8.89-5.577z" fill="#23282d"/><path d="M810.744 1605.697c-4.515.286-8.088 2.69-8.088 5.577 0 3.08 4.067 5.578 9.013 5.578 4.945 0 8.946-2.498 8.946-5.578s-4-5.576-8.946-5.576c-.31 0-.625-.02-.925 0zm174.02-147.357c-4.486.286-8.036 2.69-8.036 5.578 0 .95.446 1.806 1.115 2.59l-5.609 3.365-.524.32v13.504l-9.414 5.716h-60.65l-.557.32-51.367 31.209H657.904l-69.406-42.145-.59-.32h-15.09c-1.113-2.28-4.49-3.943-8.495-3.943-4.913 0-8.89 2.497-8.89 5.577s3.976 5.557 8.89 5.557c4.567 0 8.283-2.143 8.79-4.92h13.317l69.34 42.145.591.32h194.901l.526-.32 51.465-31.209h60.617l.525-.32 10.529-6.392.525-.32v-13.504l4.724-2.868c1.51.741 3.443 1.215 5.51 1.215 4.913 0 8.889-2.497 8.889-5.577s-3.976-5.577-8.889-5.577c-.307 0-.618-.02-.92 0zm-136.11 147.697c-4.514.286-8.087 2.69-8.087 5.577 0 3.08 4.067 5.577 9.012 5.577 4.946 0 8.946-2.497 8.946-5.577s-4-5.577-8.946-5.577c-.31 0-.624-.019-.925 0z" fill="#0073aa" fill-opacity=".882"/><path fill="none" d="M-332.112 1435.388H866.824v238.936H-332.112z"/></g></svg>