<svg xmlns="http://www.w3.org/2000/svg" width="1035.734" height="500"><defs><filter id="a" color-interpolation-filters="sRGB"><feFlood flood-opacity=".627" flood-color="#333" result="flood"/><feComposite in="flood" in2="SourceGraphic" operator="in" result="composite1"/><feGaussianBlur in="composite1" stdDeviation="3" result="blur"/><feOffset result="offset"/><feComposite in="SourceGraphic" in2="offset" result="composite2"/></filter><filter id="b" color-interpolation-filters="sRGB"><feFlood flood-opacity=".627" flood-color="#333" result="flood"/><feComposite in="flood" in2="SourceGraphic" operator="in" result="composite1"/><feGaussianBlur in="composite1" stdDeviation="3" result="blur"/><feOffset result="offset"/><feComposite in="SourceGraphic" in2="offset" result="composite2"/></filter><filter id="c" color-interpolation-filters="sRGB"><feFlood flood-opacity=".627" flood-color="#333" result="flood"/><feComposite in="flood" in2="SourceGraphic" operator="in" result="composite1"/><feGaussianBlur in="composite1" stdDeviation="3" result="blur"/><feOffset result="offset"/><feComposite in="SourceGraphic" in2="offset" result="composite2"/></filter></defs><g transform="matrix(1.28987 0 0 -.6974 -990.227 41.235)" fill="#95a3a6" fill-opacity=".863" filter="url(#a)"><path d="M914.524 52.647c-9.728-.087-20.608-4.003-26.173-10.365-13-14.86-24.371-22.782-34.821-29.266-10.45-6.484-11.98-29.754-19.414-30.97L811.224-48.71c-3.137-5.055-6.799-9.832-9.92-15.022-1.703-2.54-3.691-6.65-6.185-10.584-5.415-8.547-17.498-16.925-27.422-26.488v.154h-6.99v-557.18h816.958v557.18h-6.99v-.04s0-.004-.008-.005c-9.927-9.57-17.72-27.343-31.242-30.395-13.523-3.053-29.903 5.258-46.111 16.258-5.676 3.852-8.5 11.714-13.552 18.34-5.053 6.628-9.326 15.279-15.163 20.605-5.836 5.327-15.497 3.076-23.524 3.027-8.027-.05-18.57 0-30.196-9.5-11.625-9.5-25.125-16.627-35.869-11.277-10.742 5.35-13.51 25.434-22.307 35.77-8.795 10.335-34.401 28.302-36.11 19.012-1.586-8.634-9.08-12.362-13.19-16.918-4.11-4.556-7.704-2.323-13.368-3.235-5.664-.912-12.804-13.177-19.055-10.88-6.251 2.297-14.275 7.407-20.145 12.48-5.138 4.438-6.963 9.688-11.461 6.494-4.498-3.193-2.554-13.621-6.578-20.181-4.024-6.56-23.7-29.32-27.272-29.816-11.016-1.528-17.644 9.091-25.725 13.076-8.08 3.986-23.066.121-30.516 8.251-7.45 8.13-10.4 22.371-19.524 33.274-9.125 10.903-24.102 18.073-37.207 30.378-3.461 3.25-6.725 14.555-12.96 12.175-6.235-2.381-12.026-11.22-19.267-15.224s-13.422-9.567-19.901-11.189c-6.478-1.62-16.905-5.618-20.852-.851-9.646 11.654-14.796 29.16-27.032 39.805-12.235 10.645-24.28 22.65-36.83 29.804-12.55 7.154-26.516 12.675-37.107 13.857a34.06 34.06 0 01-4.08.202z"/></g><path d="M689.975-54.186c2.02-.242 3.637-.43 5.294-.247-1.625-.28-3.327-.933-5.294.247M1011.188-108.757c.07.032.138.07.203.119l-.203-.12M910.232-41.043c.06.02.12.045.178.076l-.178-.076M919.991-120.69c-.087.027-.173.06-.255.1l.255-.1M271.975 292.599c.062.03.123.064.182.107l-.182-.107" fill="#20273a"/><path d="M815.134 83.711c-2.341-.308-4.214-.547-6.133-.315 1.883-.358 3.854-1.188 6.133.315M956.113 4.504c.086.033.17.07.252.119l-.252-.119M162.672 325.92c.064.031.126.066.187.11-.062-.036-.126-.072-.187-.11" fill="#0e202e"/><path d="M491.706-35.92c-.072.038-.143.081-.21.136l.21-.135" fill="#03141e"/><g><g transform="matrix(1.28987 0 0 -.6974 1071.097 150.292)" fill="#7c8690" fill-opacity=".706" filter="url(#b)"><path d="M-747.212 109.31c-.23.014-.456.01-.677-.012h-.002c-8.544-.819-10.423-27.734-19.14-25.841-9.794-32.42-21.44-13.613-29.49-46.715-5.03-14.85-11.129-27.319-17.175-36.774-4.164-4.476-7.438-13.652-16.652-17.79l-.046-.022v.235h-7.365V-449.83H-20.05V-17.61h-7.365v.006c-15.235-6.841-19.036-15.574-34.27-22.416-15.237-6.841-16.96-6.276-33.658-6.55-19.298-.319-14.552 8.04-30.833 23.326-8.46 7.944-14.445 20.784-25.849 28.445-10.493 7.048-22.143 12.421-34.318 16.776-12.108 4.331-24.021 2.898-37.028 2.246-12.115-.607-23.952.165-36.21-6.702-9.988-5.596-18.758-13.93-28.47-24.81-8.919-9.992-17.071-18.39-24.552-23.598-11.795-8.211-24.354-13.35-33.466-12.52-10.828.987-19.36 12.533-28.084 20.893-7.616 7.3-14.072 16.82-21.391 25.556-7.423 8.86-11.638 22.439-20.016 28.74-17.08 12.845-32.744 3.012-43.684-7.209-8.979-8.388-21.34-15.39-34.843-24.27-12.056-7.927-14.846-12.803-28.328-6.693-7.643 3.464-17.26 8.72-30.758 16.478-8.495 4.882-22.63 3.111-34.704 9.643-10.026 5.423-17.306 11.863-28.175 10.029-10.28-1.735-20.575 1.933-31.479 2.198-9.677.235-16.562-.417-26.638 7.531-6.834 5.39-19.513 7.56-26.495 18.725-6.471 10.348-6.886 25.042-14.458 32.129-8.873 8.304-20.66 13.576-29.886 18.31-.781.401-1.513.612-2.203.656z"/></g></g><g><g transform="matrix(1.28987 0 0 -.80349 -15.205 -2611.345)" fill="#605d70" fill-opacity=".549" filter="url(#c)"><path d="M518.581-3484.68c-8.543-.4-26.444-29.564-32.154-27.379-12.52 2.72-14.22 15.594-24.84 20.94-5.447-4.575-14.576 7.197-22.874 5.335-8.834-1.984-15.674-10.127-23.305-11.488-14.691-2.621-11.87 2.3-24.69 3.66-11.828 3.807-18.637-8.463-25.297-10.031-7.511-1.768-12.114-3.533-20.709-10.079-5.555-4.23-20.13-.358-28.927-5.833-6.341-3.947-13.143-7.563-22.148-11.894-6.994-3.363-12.392-9.646-22.383-7.823-8.251 1.506-16.65 5.947-25.503 7.315-9.053 1.399-19.814 4.652-28.116 2.391-7.539-2.052-11.477-11.27-17.298-19.14-4.433-5.992-8.738-12.412-13.993-17.45-5.624-5.393-8.629-13.736-14.43-18.006-6.767-4.979-16.832-6.111-22.674-9.514-12.012-6.997-14.344-16.795-24.432-11.08-9.549 5.411-3.077 11.678-9.72 19.722-6.645 8.043-2.777 10.45-9.42 18.493-6.645 8.044-5.735 8.609-12.378 16.651-6.643 8.043-4.65-4.999-11.293 3.044-12.234-13.86-6.645-10.697-19.388-27.87.048-10.53-9.6-7.068-14.251-14.324-4.222-6.587-21.23-9.879-27.76-10.73-2.363.934-5.033 1.842-8.81 2.358v-.02H4.113v-190.242h817.643v190.243h-7.676v-.321c-6.338-1.596-12.106-2.314-12.995-2.273-.999.046-1.655.028-2.046-.046-2.918.616-5.929 1.215-9.148 1.655-7.381 1.008-17.522-8.591-25.922-7.249-7.588 1.214-14.716 6.734-22.846 8.243-7.688 1.427-14.897 5.652-22.832 7.363-7.734 1.668-14.477 6.596-22.228 8.552-7.742 1.954-15.44 3.533-22.984 5.79-7.71 2.307-17.995-1.38-25.272 1.262-7.618 2.766-10.532 13.662-17.418 16.816-7.41 3.394-16.677 2.962-22.924 6.83-6.916 4.284-7.654 12.874-12.724 17.772-5.596 5.407-16.389 6.17-21.44 10.84-5.806 5.368-16.572 5.676-21.709 10.136-6.129 5.32-8.71 12.524-13.97 16.656-6.668 5.24-8.515 8.274-19.041 10.724z"/></g></g></svg>